<?xml version="1.0" encoding="UTF-8" standalone="no"?>
<!-- Uploaded to: SVG Repo, www.svgrepo.com, Generator: SVG Repo Mixer Tools -->

<svg
   fill="#000000"
   version="1.1"
   id="Layer_1"
   width="800px"
   height="800px"
   viewBox="0 0 260 260"
   enable-background="new 0 0 260 260"
   xml:space="preserve"
   sodipodi:docname="instagram.svg"
   inkscape:version="1.2.2 (b0a8486541, 2022-12-01)"
   xmlns:inkscape="http://www.inkscape.org/namespaces/inkscape"
   xmlns:sodipodi="http://sodipodi.sourceforge.net/DTD/sodipodi-0.dtd"
   xmlns="http://www.w3.org/2000/svg"
   xmlns:svg="http://www.w3.org/2000/svg"><defs
   id="defs7" /><sodipodi:namedview
   id="namedview5"
   pagecolor="#ffffff"
   bordercolor="#000000"
   borderopacity="0.25"
   inkscape:showpageshadow="2"
   inkscape:pageopacity="0.0"
   inkscape:pagecheckerboard="0"
   inkscape:deskcolor="#d1d1d1"
   showgrid="false"
   inkscape:zoom="0.70666963"
   inkscape:cx="515.09218"
   inkscape:cy="386.31913"
   inkscape:window-width="1920"
   inkscape:window-height="1011"
   inkscape:window-x="0"
   inkscape:window-y="0"
   inkscape:window-maximized="1"
   inkscape:current-layer="Layer_1" />
<path
   d="M 164.68003,63.809064 H 95.319961 c -17.370105,0 -31.510896,14.140791 -31.510896,31.510897 v 69.360079 c 0,17.37011 14.140791,31.5109 31.510896,31.5109 h 69.360069 c 17.37012,0 31.51091,-14.14079 31.51091,-31.5109 V 95.319961 c 0,-17.370106 -14.14079,-31.510897 -31.51091,-31.510897 z M 130,171.2189 c -22.72555,0 -41.218901,-18.49335 -41.218901,-41.2189 0,-22.72555 18.493351,-41.218901 41.218901,-41.218901 22.72555,0 41.2189,18.493351 41.2189,41.218901 0,22.72555 -18.49335,41.2189 -41.2189,41.2189 z m 42.34214,-74.0135 c -5.31533,0 -9.62777,-4.31244 -9.62777,-9.637802 0,-5.315332 4.31244,-9.627771 9.62777,-9.627771 5.32537,0 9.6378,4.312439 9.6378,9.627771 0,5.325362 -4.31243,9.637802 -9.6378,9.637802 z M 130,102.8216 c -14.98323,0 -27.1784,12.19517 -27.1784,27.1784 0,14.98322 12.19517,27.1784 27.1784,27.1784 14.98323,0 27.1784,-12.19518 27.1784,-27.1784 0,-14.98323 -12.19517,-27.1784 -27.1784,-27.1784 z M 130,1.629701 C 59.105497,1.629701 1.629701,59.105496 1.629701,130 1.629701,200.8945 59.105497,258.3703 130,258.3703 200.8945,258.3703 258.3703,200.8945 258.3703,130 258.3703,59.105496 200.8945,1.629701 130,1.629701 Z m 80.23144,163.050339 c 0,25.11244 -20.43897,45.55139 -45.55141,45.55139 H 95.319961 c -25.112439,0 -45.551398,-20.43895 -45.551398,-45.55139 V 95.319961 c 0,-25.11244 20.438959,-45.551398 45.551398,-45.551398 h 69.360069 c 25.11244,0 45.55141,20.438958 45.55141,45.551398 z"
   id="path2"
   style="fill:#333333;fill-opacity:1;stroke:#f7f612;stroke-width:3.2594;stroke-dasharray:none;stroke-opacity:1" />
</svg>
