<?xml version="1.0" encoding="UTF-8" standalone="no"?>
<!-- Uploaded to: SVG Repo, www.svgrepo.com, Generator: SVG Repo Mixer Tools -->

<svg
   fill="#000000"
   width="800px"
   height="800px"
   viewBox="0 0 32 32"
   version="1.1"
   id="svg6"
   sodipodi:docname="facebook-svgrepo-com.svg"
   inkscape:version="1.2.2 (b0a8486541, 2022-12-01)"
   xmlns:inkscape="http://www.inkscape.org/namespaces/inkscape"
   xmlns:sodipodi="http://sodipodi.sourceforge.net/DTD/sodipodi-0.dtd"
   xmlns="http://www.w3.org/2000/svg"
   xmlns:svg="http://www.w3.org/2000/svg">
  <defs
     id="defs10" />
  <sodipodi:namedview
     id="namedview8"
     pagecolor="#ffffff"
     bordercolor="#000000"
     borderopacity="0.25"
     inkscape:showpageshadow="2"
     inkscape:pageopacity="0.0"
     inkscape:pagecheckerboard="0"
     inkscape:deskcolor="#d1d1d1"
     showgrid="false"
     inkscape:zoom="0.69960995"
     inkscape:cx="405.2258"
     inkscape:cy="313.03157"
     inkscape:window-width="1920"
     inkscape:window-height="1011"
     inkscape:window-x="0"
     inkscape:window-y="0"
     inkscape:window-maximized="1"
     inkscape:current-layer="svg6" />
  <title
     id="title2">facebook</title>
  <path
     d="M 31.788894,16.077681 C 31.787841,7.3147687 24.7199,0.21110619 16,0.21110619 c -8.7198999,0 -15.78889381,7.10472061 -15.78889381,15.86869081 0,7.888843 5.72763281,14.43272 13.23041081,15.661285 l 0.09055,0.0127 V 20.666014 H 9.5227211 v -4.588333 h 4.0093429 v -3.494159 c -0.02,-0.17672 -0.03054,-0.382009 -0.03054,-0.589415 0,-3.0931041 2.49531,-5.6010261 5.572861,-5.6010261 0.148454,0 0.295856,0.00635 0.442206,0.016931 l -0.01895,-0.00106 c 1.262395,0.017989 2.483729,0.1301579 3.675581,0.3301567 l -0.141077,-0.020106 v 3.9047394 h -1.992037 c -0.09055,-0.0127 -0.194782,-0.0201 -0.30007,-0.0201 -1.26029,0 -2.282629,1.02645 -2.282629,2.294167 0,0.07196 0.0032,0.142857 0.0095,0.213755 l -0.0011,-0.0095 v 2.975644 h 4.378902 L 22.14455,20.666041 H 18.46583 V 31.75378 c 7.594378,-1.242321 13.322011,-7.787257 13.323064,-15.676099 z"
     id="path4"
     style="fill:#333333;fill-opacity:1;stroke:#f7f612;stroke-width:0.422213;stroke-dasharray:none;stroke-opacity:1" />
</svg>
