<?xml version="1.0" encoding="UTF-8" standalone="no"?>
<svg
   version="1.1"
   viewBox="0 0 1200 400"
   id="svg80"
   sodipodi:docname="Solo-Logo.svg"
   inkscape:version="1.2.2 (b0a8486541, 2022-12-01)"
   width="1200"
   height="400"
   xmlns:inkscape="http://www.inkscape.org/namespaces/inkscape"
   xmlns:sodipodi="http://sodipodi.sourceforge.net/DTD/sodipodi-0.dtd"
   xmlns="http://www.w3.org/2000/svg"
   xmlns:svg="http://www.w3.org/2000/svg">
  <defs
     id="defs84" />
  <sodipodi:namedview
     id="namedview82"
     pagecolor="#ffffff"
     bordercolor="#cccccc"
     borderopacity="1"
     inkscape:showpageshadow="0"
     inkscape:pageopacity="1"
     inkscape:pagecheckerboard="0"
     inkscape:deskcolor="#d1d1d1"
     showgrid="false"
     inkscape:zoom="1.0476424"
     inkscape:cx="574.62355"
     inkscape:cy="230.99485"
     inkscape:window-width="1920"
     inkscape:window-height="1011"
     inkscape:window-x="0"
     inkscape:window-y="0"
     inkscape:window-maximized="1"
     inkscape:current-layer="svg80" />
  <g
     stroke-width="2"
     fill="none"
     stroke-linecap="butt"
     id="g48"
     style="display:inline"
     transform="matrix(1.0393582,0,0,1.0393582,-128.71668,-482.64359)">
    <path
       stroke="#8e8b26"
       vector-effect="non-scaling-stroke"
       d="m 132.5,581.46 c 8.3,22.83 34.15,27.91 55.6,28.7 7.41,0.27 11.96,1.16 18.13,3.91 q 1.58,0.7 1.38,2.43 c -0.62,5.2 -1.83,8.92 -4.29,13.99 q -16.61,34.24 -32.94,68.61 c -9.72,20.45 -16.47,40.83 -15.61,63.69"
       id="path4" />
    <path
       stroke="#908c18"
       vector-effect="non-scaling-stroke"
       d="m 154.77,762.79 q -0.28,14.47 3.77,28.46"
       id="path6" />
    <path
       stroke="#8e8b26"
       vector-effect="non-scaling-stroke"
       d="m 158.54,791.25 c 6.16,17.68 19.63,37.85 37.2,46.01 15.65,7.26 35.52,1.81 39.82,-16.5 2.41,-10.27 1.18,-18.45 1.47,-28.06 q 0.02,-0.5 0.33,-0.12 c 14.4,17.55 37.96,26.3 60.38,21.83 7.08,-1.42 13.54,-4.9 15.16,-12.49 q 0.1,-0.49 0.43,-0.13 c 12.96,14.11 32.71,14.97 50.14,10.99 13.61,-3.1 23.2,-9.46 29.9,-21.37 q 0.24,-0.44 0.46,0.01 c 15.33,31.55 55.06,28.41 72.96,1.86 q 0.79,-1.17 1.21,0.18 c 6.81,22.11 25.62,38.29 49.24,37.56 9.02,-0.28 19.97,-5.64 21.87,-15.44 q 0.6,-3.11 -0.42,-11.06 -1.24,-9.7 -1.85,-19.47 -0.04,-0.66 0.43,-0.39 0.22,0.13 0.36,0.42 c 7.87,16.98 20.86,28.64 40.16,29.44 10.85,0.44 23.08,-12.09 28.04,-20.85 a 0.33,0.32 41.3 0 1 0.54,-0.03 c 9.48,12.78 21.73,23.72 39.03,21.36 q 13.9,-1.9 20.37,-15.8 a 0.35,0.35 -55 0 1 0.56,-0.1 q 2.14,2.14 4.27,4.32 c 12.19,12.48 36.28,16.73 45.96,-1.67 a 0.76,0.64 -69.5 0 1 0.72,-0.41 c 0.71,0.12 1.15,0.54 1.34,1.3 3.99,16.26 23.77,25.48 38.67,25.51 21.67,0.04 43.33,-13.91 57.33,-29.52 7.54,-8.4 15.17,-16.21 19.76,-26.74 q 0.49,-1.12 0.92,0.03 c 4.48,11.73 11.14,23.67 20.86,31.29 19.23,15.09 50.36,15.46 62.85,-9.29 q 6.65,-13.2 12.6,-28.33 1.17,-2.96 1.42,0.21 c 0.85,10.84 3.49,22.63 9,32.44 9.55,16.98 29.21,28.78 48.83,21.11 25.9,-10.12 33.45,-45.07 40.7,-68.33 a 0.64,0.35 -80.5 0 1 0.32,-0.41 l 0.28,-0.07 a 0.64,0.35 85.5 0 1 0.44,0.67 q 0.41,25.86 15.79,45.77 c 14.66,18.99 45.84,24.74 57.92,-1.25 q 0.34,-0.74 0.77,-0.05 c 13.14,20.89 36.79,21.53 53.26,3.92 a 0.53,0.52 40.9 0 1 0.72,-0.04 c 10.99,9.15 29.56,19.04 44.12,12.93 8.72,-3.66 16.58,-16.26 21.86,-25.74"
       id="path8" />
    <path
       stroke="#8e8b26"
       vector-effect="non-scaling-stroke"
       d="m 1251.04,739.5 q 8.19,-18.59 16.13,-37.28 2.88,-6.77 3.74,-11.78 c 1.9,-11.06 -7.04,-17.86 -17,-19.03 q -3.39,-0.4 -6.92,-0.85 a 0.55,0.53 5.8 0 1 -0.47,-0.56 q 0.44,-7.61 -2.59,-12.43 c -3.37,-5.37 -7.29,-6.11 -13.44,-7.03 -5.29,-0.78 -9.08,-3.16 -12.08,-7.22 -8.4,-11.37 -13.29,-26.35 -29.71,-29.69 q -6.01,-1.22 -13.89,0.25 c -18.79,3.51 -29.89,14.64 -38.31,31.59 q -0.64,1.3 -0.71,-0.05 c -1.04,-20.62 -17.4,-21.73 -32.94,-25.58 -7.88,-1.96 -18.74,-9.9 -21.28,-18.24 -2.56,-8.41 -2.39,-17.21 -6.63,-24.99 -6.47,-11.87 -17.23,-11.9 -26.55,-3.93 -11.07,9.45 -22.16,21.76 -30.86,32.35 -1.3,1.58 -4.27,4.71 -6.53,5.72 -7.63,3.43 -15.35,-2.81 -18.37,-9.6 -3.86,-8.67 -4.68,-20.17 -6.14,-26.9 -3.47,-16.07 -12.84,-22.69 -26.82,-28.77 q -5.78,-2.52 -10.18,-3.44 c -8.19,-1.72 -9.01,7.64 -12,13.01 q -11.26,20.2 -35.15,24.38 a 0.65,0.64 76.3 0 1 -0.73,-0.45 c -5.62,-18.06 -17.4,-34.88 -37.93,-36.86 -14.12,-1.36 -29.29,-2.08 -42.36,-3.86 q -21.21,-2.9 -42.1,-7.62 C 752.9,524.69 724.6,509.82 727.16,478.06 a 0.32,0.32 -8.2 0 0 -0.43,-0.32 q -21.01,7.56 -36.66,23.02 c -6.37,6.29 -11.75,14.34 -16.65,22.16 -12.87,20.52 -14.53,49.77 6.02,66.39 q 18.37,14.85 41.56,22.56 c 6.73,2.23 10.63,3.75 14.66,8.57 q 0.67,0.8 -0.38,0.9 -22.11,2.01 -40.92,13.56 a 0.48,0.47 59.2 0 1 -0.67,-0.18 c -9.7,-17.37 -25.41,-18.32 -43.1,-11.94 a 0.55,0.55 -6.8 0 1 -0.73,-0.57 c 2.3,-23.64 -17.11,-41.38 -40.93,-33.95 q -1.07,0.33 -0.66,-0.7 c 6.62,-16.72 4.33,-37.26 -10.22,-48.67 -17.58,-13.8 -42.64,-5.99 -56.84,9.33 q -8.82,9.51 -13.44,18.08 -17.1,31.72 -28.55,65.91 a 0.59,0.59 -68 0 1 -0.82,0.35 q -33.7,-16.34 -62.78,4.8 c -3.8,2.76 -7.33,6.76 -10.78,10.29 a 0.38,0.38 -38.1 0 1 -0.6,-0.07 c -12.07,-20.44 -27.72,-31.88 -52.16,-31.63 -2.78,0.03 -6.19,0.64 -9.34,0.77 a 0.61,0.6 82.9 0 1 -0.6,-0.47 c -6.51,-29.42 -24.8,-61.54 -57.11,-67.17 -8.79,-1.53 -21.38,-0.67 -31.29,-1.07 -29.29,-1.18 -57.74,-12.95 -78.32,-34.2 Q 187.86,506 180.2,498.3 c -6.06,-6.1 -14.17,-10.2 -22.14,-4.71 -5.8,3.98 -9.36,12.7 -12.31,19.45"
       id="path12" />
    <path
       stroke="#908b1b"
       vector-effect="non-scaling-stroke"
       d="m 1251.04,739.5 q -10.52,24.37 -24,47.25"
       id="path14" />
    <path
       stroke="#fbf51c"
       vector-effect="non-scaling-stroke"
       d="m 158.54,791.25 c 2.83,1.19 2.89,3.92 3.94,5.73 4.49,7.74 7.52,11.73 11.02,17 4.56,6.87 9.46,12.17 16.33,16.72 10.82,7.18 19.98,10.57 31.71,4.03 q 3.76,-2.1 5.94,-4.6 a 1.49,1.37 -25.2 0 0 0.36,-0.88 q 0.1,-2.75 -1.88,-4.57 a 0.68,0.64 -39.5 0 0 -0.8,-0.05 c -8.62,5.65 -16.5,4.61 -25.64,0.26 -8.92,-4.26 -15.04,-9.85 -21.69,-17.92 -2.65,-3.22 -4.63,-7.21 -7.06,-10.83 q -1.43,-2.15 -2.53,-4.97 c -0.71,-1.8 -4.49,-7.22 -1.49,-8.21"
       id="path16" />
    <path
       stroke="#8d8b26"
       vector-effect="non-scaling-stroke"
       d="m 166.75,782.96 q 9.29,24.25 31.05,38.22 c 7.21,4.62 17.61,7.11 25.17,2.26 8.16,-5.23 7.06,-12.43 7.01,-23.1 q -0.05,-9.75 0.12,-19.49 0.06,-3.52 -0.58,-9.64 c -0.98,-9.35 0.03,-16.3 2.85,-26.25 q 2.94,-10.39 5.84,-20.57 0.77,-2.69 0.65,0.1 -0.97,22.41 -1.43,44.81 c -0.04,1.69 -0.49,4.62 0.1,6.7 6.41,22.5 29.63,32.88 51.73,32.45 4.64,-0.09 18.01,-1.98 16.51,-9.2 -0.67,-3.23 -2.13,-6.68 0.37,-9.21 4.7,-4.75 12.68,7.77 16.07,10.49 14.16,11.36 44.04,8.63 57.47,-2.9 10.57,-9.08 12.03,-25.6 14.22,-38.55 q 0.05,-0.3 0.16,-0.44 0.29,-0.35 0.37,0.28 1.74,14.7 3.31,22.08 c 3.14,14.78 16.08,26.79 31.72,26.21 22.33,-0.84 34.66,-18.29 41.09,-37.99 a 0.34,0.3 -75.7 0 1 0.34,-0.23 c 0.4,0.05 2.12,14.37 2.39,15.99 3.32,20.13 18.08,36.78 39.02,38.91 5.95,0.61 13.83,-0.81 17.81,-5.57 2.81,-3.37 2.35,-8.22 1.75,-12.77 -1.84,-13.8 -2.55,-27.34 -2.08,-41.69 q 0.06,-2.06 1.34,-3.7 c 2.69,-3.46 5.81,-0.3 6.57,2.88 3.44,14.38 9.21,30.29 21.94,38.68 5.41,3.57 15.97,7.73 22.5,4.85 11.8,-5.21 18.64,-15.62 21.56,-27.61 q 0.3,-1.25 0.99,-0.16 c 6.07,9.71 14.67,22.11 25.39,27.11 11.81,5.5 28.16,1.63 29.78,-13.43 q 0.26,-2.4 -0.87,-5.28 -4.53,-11.59 -8.3,-23.51 -0.15,-0.47 0.17,-0.1 c 5.19,5.85 12.86,14.08 15.45,21.44 1.44,4.1 4.01,7.51 6.99,11.19 8.18,10.15 27.37,16.86 36.36,3.6 8.45,-12.47 15.53,-0.86 20.6,6.07 5.44,7.44 11.96,11.95 21.51,11.68 29.57,-0.85 62.94,-21.5 76.31,-48.37 2.08,-4.17 6.36,-9.73 10.88,-5.12 q 1.46,1.49 3.58,6.92 c 3.66,9.36 9.19,19.41 16.77,25.7 9.97,8.28 23.19,11.88 35.87,8.68 12.67,-3.2 15.94,-10.94 21.63,-23.11 q 5.08,-10.88 9.46,-22"
       id="path18" />
    <path
       stroke="#f8f43e"
       vector-effect="non-scaling-stroke"
       d="m 926.26,760.27 q 3.91,-1.95 3.8,-6.52 a 1.54,1.48 62.9 0 1 0.27,-0.9 q 4.5,-6.26 3.27,-13.86"
       id="path20" />
    <path
       stroke="#8d8b26"
       vector-effect="non-scaling-stroke"
       d="m 933.6,738.99 5.77,-18.97 q 0.16,-0.54 0.16,0.03 c -0.05,22.2 -2.67,49.45 6.37,70.26 5.43,12.51 17.9,24.31 32.07,24.42 18.4,0.15 31.05,-18.58 36.5,-33.79 4.06,-11.33 8.95,-32.6 17.08,-45.88 q 3.11,-5.07 12.09,-16.78 a 0.56,0.27 -56.3 0 1 0.45,-0.26 c 0.11,0.03 -3.45,18.45 -3.7,20.19 q -3.95,26.92 10.05,49.78 c 6.74,11 20.3,19.97 33.49,18.08 11.72,-1.67 18.27,-13.53 17.84,-24.79 a 0.64,0.64 80.7 0 1 0.46,-0.64 q 2.91,-0.84 6.14,-0.52 a 0.67,0.66 -2.3 0 1 0.59,0.54 c 2.22,12.54 11.49,23.35 24.34,24.47 11.06,0.96 19.99,-6.7 25.74,-15.85 a 0.42,0.41 37.3 0 1 0.63,-0.08 c 10.57,9.77 35.31,27.42 48.76,12.23 5.78,-6.52 10.4,-14.99 15.08,-22.96 14.35,-24.39 24.06,-48.53 34.84,-73.39 2.39,-5.51 6.75,-14.16 5.48,-19.46 -2.13,-8.87 -16.84,-7.66 -24.58,-7.65 a 0.44,0.43 -87.1 0 1 -0.44,-0.49 c 0.68,-5.15 1.71,-10.94 -1.06,-16.05 -2.82,-5.21 -8.44,-2.9 -13.03,-4.82 -19.82,-8.3 -19.3,-37.36 -43.5,-36.51 q -9.27,0.32 -18.99,5.75 c -12.81,7.17 -18.14,19.37 -23.75,32.35 q -1.18,2.74 -4.06,3.53 c -3.74,1.03 -5.75,-2.26 -5.71,-5.74 0.14,-15.57 0.9,-22.32 -15.9,-26.38 -5.86,-1.42 -12.41,-2.67 -17.57,-4.85 -10.91,-4.61 -20.53,-16.04 -22.36,-28.81 -0.9,-6.28 -2.62,-20.3 -10.85,-21.65 -4.88,-0.8 -9.73,3.92 -12.82,6.91 q -13.2,12.8 -25.97,27.8 c -3.66,4.3 -6.67,7.69 -12.2,9.13 -14.88,3.89 -25.76,-10.77 -28.03,-23.4 q -1.5,-8.37 -2.81,-16.77 c -2.68,-17.23 -16.54,-24.89 -31.93,-28.83 a 0.55,0.55 17.1 0 0 -0.65,0.34 q -13.02,34.7 -50.66,37.58 a 0.59,0.59 80.8 0 1 -0.62,-0.45 c -4.21,-18.35 -14.45,-35.97 -35.27,-37.72 -12.08,-1.01 -24.37,-1.69 -34.32,-2.85 q -23.22,-2.71 -46.06,-7.78 c -27.03,-6 -55.65,-18.82 -60.59,-49.57 a 0.38,0.37 -17.6 0 0 -0.54,-0.27 c -19.72,9.65 -38.7,27.46 -42.51,50.07 -2.81,16.7 2.83,38.42 17.75,48.23 q 16.09,10.58 37.32,21.98 c 6.39,3.43 14.83,10.86 9.43,18.94 a 0.97,0.93 15.4 0 1 -0.78,0.42 q -29.22,1.11 -51.81,19.45 -1.58,1.29 -1.31,-0.73 c 0.79,-5.86 -0.76,-11.54 -5.36,-15.52 -13.32,-11.52 -31.8,-1.04 -44.31,5.96 q -0.94,0.52 -0.48,-0.45 c 2.34,-4.91 4.92,-10.41 5.39,-15.63 1.3,-14.62 -8.97,-28.8 -24.62,-27.64 q -12.19,0.9 -18.74,11.12 a 0.75,0.75 -57.6 0 1 -1.02,0.23 l -4.86,-3 a 0.63,0.63 34 0 1 -0.18,-0.9 c 3.92,-5.52 7.08,-11.91 9.16,-18.1 5.5,-16.38 0.23,-39.34 -19.14,-43.34 -14.14,-2.91 -29.14,4.14 -38.43,14.82 -8.8,10.14 -14.28,20.73 -20.72,34.36 q -12.54,26.52 -21.19,54.42 a 0.71,0.71 -62.9 0 1 -1.1,0.36 c -27.96,-20.9 -63.87,-10.42 -78.91,20.08 q -0.54,1.1 -0.88,-0.08 c -2.9,-10.11 -6.69,-18.63 -14.08,-26.21 -13.26,-13.61 -32.57,-17.28 -50.76,-11.76 a 0.45,0.44 -12.7 0 1 -0.57,-0.35 c -4.83,-27.84 -20.43,-62.28 -51.37,-68.81 q -4.74,-1 -16.67,-0.95 c -28.52,0.11 -55.12,-4.45 -79.52,-20.78 -12.95,-8.67 -23.03,-20.39 -33.77,-31.07 -9.11,-9.05 -15.02,-5.74 -19.62,4.37 q -8.65,18.97 -14.43,40.33 c -1.69,6.21 -3.74,13.3 -2.33,19.32 2.87,12.29 21.39,22.98 33.19,27.11 q 14.36,5.02 29.32,7.62 c 15.25,2.64 14.88,17 9.59,27.96 Q 194.45,665 177.77,699.79 c -9.53,19.89 -17.35,41.36 -15.56,64.21"
       id="path22" />
    <path
       stroke="#fbf51c"
       vector-effect="non-scaling-stroke"
       d="m 162.21,764 q -0.48,0.29 -0.73,-0.16 a 0.56,0.49 64 0 0 -0.63,-0.27 q -3.34,1.32 -6.08,-0.78"
       id="path24" />
    <path
       stroke="#908b1b"
       vector-effect="non-scaling-stroke"
       d="m 132.5,581.46 q -1.8,-6.43 -1.31,-9.72 c 0.76,-5.13 0.07,-10.63 1.15,-15.44 q 4.95,-22.15 13.41,-43.26"
       id="path26" />
    <path
       stroke="#8c8b39"
       vector-effect="non-scaling-stroke"
       d="m 933.6,738.99 -7.34,21.28"
       id="path28" />
    <path
       stroke="#8f8b17"
       vector-effect="non-scaling-stroke"
       d="M 166.75,782.96 Q 163.39,773.74 162.21,764"
       id="path30" />
    <path
       stroke="#fbf51c"
       vector-effect="non-scaling-stroke"
       d="m 684.93,580.48 c -7.83,-10.71 -12.5,-25.05 -10.32,-38.51 q 0.34,-2.13 -1.57,-3.11 -1.77,-0.91 -4.42,0.11 a 0.72,0.69 78.5 0 0 -0.43,0.69 c 0.15,3.26 -1,6.51 -1.34,8.79 q -3.9,26.08 17.84,41.89 c 5.21,3.79 9.59,6.08 13.84,9.54 q 2.08,1.69 4.53,0.84 l 3.91,-1.36 a 0.86,0.79 -6.4 0 0 0.56,-0.65 q 0.1,-0.75 -0.14,-1.45 a 1.41,1.07 10 0 0 -0.65,-0.7 c -7.59,-3.96 -16.73,-9.14 -21.81,-16.08"
       id="path32" />
    <path
       stroke="#fcf519"
       vector-effect="non-scaling-stroke"
       d="m 143.02,592.89 q 8.17,8.01 19.14,10.71 0.92,0.23 6.63,1.66 c 4.09,1.03 7.88,0.78 11.95,2.06 3.82,1.2 8.18,0.54 12.05,0.46 3.64,-0.08 6.26,1 9.25,2.71 q 1.94,1.11 4.63,-1.03 c 2.74,-2.17 0.73,-3.33 -1.39,-3.9 -11.26,-3.04 -22.71,-4 -33.64,-8.14 -11.39,-4.32 -27.73,-13.41 -33.14,-24.98 -0.83,-1.78 -2.58,-3.39 -4.24,-1.41 a 1.56,1.24 70.4 0 0 -0.31,0.9 c -0.11,8.7 3.03,15.03 9.07,20.96"
       id="path34" />
    <path
       stroke="#909090"
       vector-effect="non-scaling-stroke"
       d="m 656.46,704.76 q -1.64,1.72 -0.65,-0.44 9.24,-20.1 21.66,-36.68 1.66,-2.22 -0.12,-4.35 -8.81,-10.54 -21.62,-12.67 c -6.67,-1.11 -10.51,3.98 -14.02,9.3 -13.29,20.08 -22.23,44.4 -28.8,67.47 q -1.3,4.57 -3.26,7.75 c -3.81,6.15 -15.37,21.5 -23.17,21.87 -30.8,1.5 -35.18,-42.22 -34.86,-63.41 a 0.71,0.71 81.2 0 1 0.48,-0.66 c 21.64,-7.53 46.25,-18.44 63.12,-34.27 q 13.5,-12.67 5.75,-30.03 c -2.88,-6.46 -8.9,-13.15 -16.72,-12.08 a 1.28,1.26 7.3 0 0 -1,0.76 c -12.78,29.89 -36.11,53.44 -64.87,68.05 q -1.18,0.6 -0.69,-0.63 c 13.07,-33 28.98,-67.1 49.16,-96.39 q 1.26,-1.82 -0.09,-3.58 -8.9,-11.52 -23.53,-13.38 -2.7,-0.34 -4.56,1.65 -8.19,8.78 -14.15,19.3 c -20.19,35.64 -37.08,73.68 -52.08,111.76 q -3.08,7.82 -6.35,13.28 c -6.38,10.62 -27.96,42.58 -41.3,42.67 q -2.01,0.01 -2.78,-1.83 -2.01,-4.77 -1.49,-9.98 4.05,-39.87 31.6,-68.62 c 1.27,-1.33 11.93,-9.24 9.89,-1.92 q -2.56,9.24 -6.15,17.86 -0.95,2.28 1.46,2.83 c 2.52,0.58 4.43,0.06 5.68,-2.4 5.11,-10.04 11.23,-27.57 1.81,-36.54 q -6.6,-6.27 -15.44,-9.29 c -6.79,-2.31 -11.31,-1.79 -16.37,3.12 -16.63,16.11 -28.67,37.69 -37.8,58.68 a 0.58,0.58 -56.4 0 1 -0.93,0.19 c -2.8,-2.74 -10.34,-10.82 -9.77,-14.89 q 1.86,-13.07 2.57,-23.44 c 0.81,-11.86 -0.26,-17.41 -8.94,-25.48 -3.72,-3.46 -7.25,1.56 -9.29,3.9 a 0.69,0.68 31.5 0 1 -0.78,0.18 c -5.81,-2.4 -11.99,-5.16 -18.31,-2.3 -5.23,2.36 -12.62,10.25 -16.87,15.51 q -18.41,22.81 -30.87,49.18 c -12.31,26.03 -22.68,58.04 6.13,78 39.4,27.29 67.54,-56.94 73.36,-79.95 a 0.32,0.32 26.3 0 1 0.51,-0.17 l 9.2,7.5 a 0.69,0.68 30.6 0 1 0.21,0.78 q -5.62,14.19 -7.59,26.1 c -3.64,21.91 5.14,42.51 27.02,50.11 6.05,2.1 10.02,1.1 14.31,-3.29 12.56,-12.86 21.85,-27.63 30.49,-42.72 q 1.06,-1.85 0.8,0.31 c -2.22,18.41 5.53,35.47 22.07,43.66 3.72,1.84 15.21,7.03 14.84,-1.24 -1.41,-31.37 7.51,-64.23 18.23,-93.46 0.41,-1.11 1.09,-1.89 2.3,-1.24 a 0.9,0.79 -77.2 0 1 0.42,0.78 c -0.3,26.92 6.32,73.08 29.58,90.87 4.13,3.16 10.9,5.8 15.9,3.21 10.12,-5.24 20.21,-23.53 25.97,-33.65 q 1.27,-2.23 1.48,0.32 2.35,28.19 29.49,37.02 c 6.8,2.21 8.46,-0.24 7.82,-6.82 q -3.25,-33.29 4.14,-65.96 0.48,-2.11 2.01,-3.64 13.51,-13.54 28.89,-26.48 c 0.96,-0.82 1.07,0.09 0.83,0.68 q -9.66,23.94 -15.13,49.13 c -4.88,22.48 3.11,43.13 24.72,51.82 4.59,1.84 9.18,3.37 12.22,-0.99 q 10.03,-14.36 17.16,-29.51 1.26,-2.67 1.11,0.27 c -1.13,23.2 16.06,31.49 36.2,31.95 a 0.81,0.74 -74.9 0 0 0.7,-0.45 l 0.38,-0.8 a 0.61,0.56 22.6 0 1 0.72,-0.26 c 47.17,15.88 114.61,-95.98 74.52,-101.05 -5.45,-0.69 -12.82,1.63 -18.95,2.55 q -0.48,0.07 -0.01,-0.05 8.64,-2.14 16,-6.08 c 50.27,-26.91 89.99,-120.35 -5.88,-123.88 q -10.59,-0.39 -21.17,-0.81 c -28.8,-1.15 -73.36,-9.63 -84.06,-41.69 a 0.34,0.34 60.9 0 0 -0.54,-0.16 c -12.18,10.16 -26.41,30.16 -16.52,45.7 14.11,22.17 70.95,19.06 93.42,18.68 23.66,-0.39 51.11,5.8 49.1,36.39 -1.99,30.37 -30.3,64.72 -59.93,72.65 q -1.78,0.47 -1,-1.19 11.01,-23.44 20.85,-47.18 c 3.08,-7.43 8.17,-20.74 6.21,-28.42 -3.5,-13.78 -21.81,-14.91 -32.69,-12.67 a 0.68,0.65 86.7 0 0 -0.52,0.61 q -0.88,11.56 -5.03,22.44 -11.34,29.75 -24.15,58.91 c -9.4,21.4 -21.66,44.98 -35.92,63.81 -2.58,3.41 -6.35,7.04 -10.16,3.02 -11.1,-11.71 25.44,-78.6 32.95,-91.59 a 1.33,1.19 -38.8 0 0 0.15,-0.92 c -1.82,-8.2 -18.02,-16.06 -25.55,-14.93 q -4.38,0.66 -7.61,3.94 -19.81,20 -40.94,44.82 -2.54,2.99 -4.61,5.17"
       id="path36" />
    <path
       stroke="#909090"
       vector-effect="non-scaling-stroke"
       d="m 240.38,697.66 q -1.66,0.82 -0.88,-0.86 10.29,-21.9 19.57,-44.23 c 3.39,-8.17 8.63,-21.62 6.96,-29.88 -2.91,-14.4 -21.99,-15.46 -32.96,-13.19 a 0.64,0.63 -5.9 0 0 -0.5,0.6 q -0.09,7.66 -2.28,14.41 c -14.44,44.35 -37.58,85.56 -51.53,129.96 -8.52,27.11 6.08,44.73 33.96,43.79 a 0.48,0.47 87.1 0 0 0.46,-0.52 c -2.3,-30.1 8.65,-60.69 20.18,-86.97 a 1.58,1.53 87.9 0 1 0.65,-0.72 c 5.6,-3.26 19.63,-10.25 26,-8.54 8.06,2.15 1.61,19.23 -0.51,24.99 q -6.18,16.77 -10.7,34.06 c -8.09,31.02 19.7,38.72 43.46,37.68 a 0.32,0.32 -15.4 0 0 0.27,-0.47 c -12.57,-24.17 1.24,-56.56 8.45,-80.53 1.46,-4.85 2.67,-9.85 2.81,-14.24 0.29,-9.3 -10.68,-14.83 -18.51,-14.98 -1.05,-0.02 -0.82,-0.98 -0.24,-1.3 q 17.71,-9.8 31.38,-24.41 c 13.56,-14.5 27.32,-40.54 16.65,-59.93 -12.28,-22.32 -50.85,-31.37 -73.84,-35.48 -30.88,-5.53 -67.84,-9.73 -85.96,-39.74 a 0.4,0.39 51.5 0 0 -0.62,-0.08 c -9.16,9.09 -25.7,29.91 -20.01,43.74 9.72,23.64 83.14,20.06 103.86,20.92 19.11,0.79 48.09,7.41 47.65,32.1 -0.15,7.96 -3.95,17.1 -8.47,23.84 -13.42,20 -33.4,39.23 -55.3,49.98"
       id="path38" />
    <path
       stroke="#909090"
       vector-effect="non-scaling-stroke"
       d="m 1160.24,774.53 q 8.64,22.47 34.08,23.76 a 3.29,3.26 -67.6 0 0 2.62,-1.11 q 3.03,-3.42 5.65,-7.81 c 15.54,-26.05 28.43,-53.37 41.19,-81.04 a 3.04,3 42.3 0 0 -0.15,-2.8 c -1.76,-2.96 -3.94,-0.21 -4.92,1.63 -8.17,15.42 -18.77,35.86 -31.25,50.3 -1.86,2.15 -5.05,3.91 -7.11,1.17 -6.78,-8.97 16.91,-54.06 22.46,-64.33 q 2.11,-3.91 -1.14,-7.73 -5.9,-6.93 -13.37,-9.27 a 0.73,0.73 7 0 1 -0.51,-0.65 c -0.74,-14.4 -20.94,-24.57 -32.73,-27.49 -16.5,-4.09 -47.28,50.62 -53.39,62.58 -8.28,16.23 -15.35,28.79 -24.67,41.74 -2.2,3.06 -6.9,9.05 -11.37,5.21 -12.11,-10.42 25.01,-79.49 31.8,-91.38 q 1.6,-2.79 -0.73,-5.01 c -6.48,-6.15 -16.1,-12.45 -25.11,-12.17 -23.21,0.74 -39.31,-17.34 -36.77,-40.15 a 0.38,0.37 -1.8 0 0 -0.44,-0.41 c -19.76,3.62 -29.1,33.29 -12.7,46.3 a 1.74,1.74 -64.5 0 1 0.62,1.75 c -6.11,27.71 -18.35,55.11 -33.37,79.09 -5.51,8.81 -8.89,14.37 -14.41,20.79 -3.31,3.85 -8.04,3.16 -9.79,-1.52 -2.36,-6.32 1.59,-19 4.15,-25.89 q 12.36,-33.2 29.45,-62.68 1.56,-2.69 -0.63,-4.9 c -6.31,-6.32 -16.09,-12.55 -25.26,-12.29 -22.43,0.63 -39.69,-17.29 -36.67,-40.03 a 0.7,0.7 -6 0 0 -0.93,-0.75 l -6.83,2.41 a 0.43,0.42 75 0 1 -0.56,-0.33 q -1.9,-10.25 -10.77,-14.25 c -15.32,-6.89 -31.19,8.77 -24.62,24.12 3.89,9.07 12.2,13.01 21.82,11.15 a 0.35,0.35 88.9 0 1 0.41,0.4 q -2.13,14.19 8.62,23.22 a 0.86,0.84 25.1 0 1 0.3,0.81 c -6.08,31.17 -21.98,63.42 -39.7,89.56 -2.92,4.31 -7.91,12.75 -12.13,13.35 -12.38,1.77 -3.05,-25.92 -1.22,-30.78 q 12.24,-32.52 28.99,-61.53 1.46,-2.54 -0.41,-4.8 -8.09,-9.78 -20.36,-12.17 c -7.66,-1.5 -11.74,4.01 -15.51,9.76 -13.84,21.1 -23.25,47.53 -29.64,71.83 -2.63,10.04 -4.42,16.75 -4.34,25.31 0.18,19.3 10.4,33.79 29.04,40.11 4.65,1.58 7.33,0.52 10.47,-3.29 q 5.56,-6.72 9.07,-13.12 15.19,-27.63 28.44,-59.19 c 8.5,-20.21 18.29,-39.93 27.76,-59.71 a 0.66,0.65 17.2 0 1 0.7,-0.36 q 12.93,2.1 25.78,-0.09 0.49,-0.08 0.25,0.35 -20.69,37.16 -30.15,78.52 -2.41,10.51 -2.45,16.31 c -0.11,16.93 9.02,32.28 24.81,38.96 5.8,2.46 10.54,4.07 14.71,-1.41 9.76,-12.79 17.59,-28.87 23.86,-42.4 7.29,-15.73 15.86,-35.99 24.33,-53.73 q 8.62,-18.02 17.17,-36.11 a 0.67,0.67 -73.4 0 1 0.7,-0.38 q 12.96,1.9 25.82,0.03 0.49,-0.07 0.26,0.36 -22.05,39.71 -31.31,84.24 c -4.75,22.82 5.85,44.66 28.84,51.22 2.65,0.76 5.1,0.84 7.08,-0.98 q 4.24,-3.9 7.6,-9.4 8.37,-13.72 15.22,-28.29 0.87,-1.86 0.96,0.19 c 0.82,18.4 14.2,37.63 34.14,39 a 1.27,1.25 27.1 0 0 0.9,-0.28 c 6.64,-5.49 11.91,-15.07 16.92,-23.56 q 0.25,-0.42 0.43,0.04"
       id="path40" />
    <path
       stroke="#909090"
       vector-effect="non-scaling-stroke"
       d="m 344.38,766.96 c 0.85,4.29 4.74,8.07 9.32,6.96 20.48,-4.94 36.55,-50.93 41,-69.2 a 1.24,1.18 -54.4 0 0 -0.13,-0.91 q -7.54,-12.5 -10.48,-26.86 -0.27,-1.34 -1.25,-0.38 c -16.85,16.42 -28.73,41.01 -35.47,63.27 -2.57,8.49 -4.74,18.27 -2.99,27.12"
       id="path42"
       style="display:inline" />
    <path
       stroke="#909090"
       vector-effect="non-scaling-stroke"
       d="m 757.5,783.26 q 6.55,1.62 12.08,-0.77 c 16.52,-7.12 30.41,-34.73 35.91,-50.78 1.61,-4.68 7.91,-25.22 -3.42,-22.92 q -12.11,2.45 -24.39,3.95 a 1.06,1.06 -81.9 0 0 -0.86,0.65 c -9.43,22.21 -17.29,45.01 -19.77,69.24 a 0.59,0.59 9.6 0 0 0.45,0.63"
       id="path44"
       style="display:inline" />
    <path
       stroke="#909090"
       vector-effect="non-scaling-stroke"
       d="m 1148.45,759.57 q 1.48,1.15 3,0.06 c 4.28,-3.08 8.61,-6.76 10.61,-11.89 q 10.56,-27.12 25.98,-51.45 0.73,-1.15 -0.63,-1.05 -1.96,0.14 -2.54,-1.24 a 0.94,0.75 -39.7 0 1 0.18,-0.87 q 6.39,-7.87 9.67,-18.13 c 2.46,-7.67 -7.93,-2.78 -10.14,-0.95 -22.54,18.61 -34.82,45.22 -38.53,73.88 -0.7,5.35 -1.6,8.52 2.4,11.64"
       id="path46"
       style="display:inline" />
  </g>
  <path
     fill="#ffffff"
     d="m 553.58041,249.85449 q 2.15147,-2.26579 4.79144,-5.37348 21.96164,-25.79686 42.55133,-46.58403 3.35712,-3.4091 7.90951,-4.09507 c 7.82637,-1.17447 24.66398,6.99488 26.5556,15.51761 a 1.2368363,1.3823464 51.2 0 1 -0.15589,0.95622 c -7.80559,13.50126 -45.78374,83.02394 -34.24686,95.19482 3.95995,4.17821 7.87834,0.40534 10.55988,-3.13887 14.82125,-19.57111 27.56378,-44.07918 37.33374,-66.32144 q 13.31419,-30.30768 25.10051,-61.22859 4.31333,-11.30822 5.22796,-23.32321 a 0.70676358,0.67558283 86.7 0 1 0.54047,-0.634 c 11.30821,-2.32817 30.33887,-1.15369 33.97662,13.16866 2.03714,7.98228 -3.25319,21.81613 -6.45441,29.53856 q -10.22729,24.67437 -21.67061,49.03693 -0.81071,1.72532 1.03934,1.23683 c 30.79619,-8.24211 60.22042,-43.94406 62.28875,-75.50938 2.08909,-31.79397 -26.44129,-38.22758 -51.0325,-37.82222 -23.35436,0.39494 -82.43149,3.62734 -97.09684,-19.41523 -10.27925,-16.151625 4.51083,-36.938788 17.1702,-47.498667 a 0.35338179,0.35338179 0 0 1 0.56125,0.166296 c 11.12114,33.321825 57.43494,42.135591 87.36845,43.330841 q 10.99641,0.43654 22.00322,0.84189 c 99.64327,3.66893 58.35996,100.78656 6.11142,128.75569 q -7.64967,4.09507 -16.62973,6.31929 -0.4885,0.12472 0.0104,0.0519 c 6.37126,-0.95622 14.03134,-3.36754 19.69584,-2.65036 41.66786,5.26953 -28.42644,121.53215 -77.45297,105.02714 a 0.63400849,0.5820406 22.6 0 0 -0.74835,0.27023 l -0.39495,0.83149 a 0.76912507,0.84188014 15.1 0 1 -0.72756,0.46771 c -20.93266,-0.47811 -38.79924,-9.09439 -37.62476,-33.2075 q 0.15591,-3.05571 -1.15369,-0.28063 -7.41063,15.74628 -17.83538,30.67147 c -3.15964,4.5316 -7.9303,2.94138 -12.70096,1.02896 -22.46054,-9.03202 -30.76501,-30.49477 -25.69294,-53.85955 q 5.68529,-26.18143 15.72549,-51.06366 c 0.24945,-0.61321 0.13512,-1.55903 -0.86266,-0.70676 q -15.98534,13.44929 -30.02706,27.5222 -1.59021,1.59022 -2.08912,3.78326 -7.68084,33.95584 -4.30293,68.55607 c 0.66518,6.83897 -1.06016,9.3854 -8.12779,7.08843 q -28.20818,-9.17753 -30.65067,-38.47705 -0.21826,-2.65035 -1.53824,-0.33258 c -5.98671,10.5183 -16.47383,29.52817 -26.99214,34.97439 -5.19679,2.69194 -12.23324,-0.0519 -16.5258,-3.33634 -24.17546,-18.49018 -31.05601,-66.46696 -30.74422,-94.44647 a 0.82109297,0.93542238 12.8 0 0 -0.43652,-0.81071 c -1.25762,-0.67557 -1.96439,0.13513 -2.39052,1.28881 -11.14193,30.38044 -20.413,64.53375 -18.9475,97.13842 0.38455,8.5955 -11.55768,3.20122 -15.42408,1.2888 -17.19099,-8.51234 -25.24602,-26.24379 -22.93864,-45.37838 q 0.27024,-2.245 -0.83148,-0.3222 c -8.98007,15.68391 -18.6357,31.03523 -31.69004,44.40138 -4.45885,4.56278 -8.58509,5.60215 -14.87321,3.4195 -22.74115,-7.89914 -31.86671,-29.30991 -28.08346,-52.08225 q 2.04754,-12.37874 7.88874,-27.12726 a 0.71715716,0.70676358 30.6 0 0 -0.21828,-0.81068 l -9.56209,-7.79519 a 0.33259461,0.33259461 0 0 0 -0.53007,0.17669 c -6.04907,23.91564 -35.29661,111.46078 -76.24732,83.09669 -29.94391,-20.7456 -19.16577,-54.01545 -6.37127,-81.06994 q 12.9504,-27.40787 32.08499,-51.11563 c 4.41727,-5.46703 12.09813,-13.66757 17.53396,-16.12046 6.56875,-2.97257 12.992,-0.10393 19.03066,2.39052 a 0.71715716,0.70676358 31.5 0 0 0.81071,-0.18706 c 2.12028,-2.43211 5.78921,-7.64968 9.65563,-4.05352 9.02162,8.38763 10.13374,14.15607 9.29185,26.48286 q -0.73793,10.77814 -2.67114,24.36255 c -0.59244,4.23018 7.24433,12.62821 10.15454,15.47604 a 0.60282775,0.60282775 0 0 0 0.96659,-0.19748 c 9.48935,-21.81612 22.00321,-44.24548 39.28775,-60.98953 5.25914,-5.10326 9.95705,-5.64372 17.01429,-3.2428 q 9.18792,3.13886 16.04769,9.65565 c 9.79075,9.32303 3.42988,27.54298 -1.88125,37.97813 -1.29919,2.55682 -3.28437,3.09729 -5.90354,2.49447 q -2.50486,-0.57165 -1.51747,-2.94138 3.7313,-8.95928 6.39206,-18.56295 c 2.1203,-7.6081 -8.95928,0.61323 -10.27925,1.99558 q -28.63433,29.88154 -32.84372,71.32076 -0.54048,5.41505 1.54864,10.3728 0.8003,1.9124 2.88941,1.90201 c 13.86505,-0.0936 36.29439,-33.31143 42.92549,-44.34942 q 3.3987,-5.67489 6.59992,-13.80267 c 15.59038,-39.57876 33.14514,-79.11595 54.12978,-116.15866 q 6.19459,-10.93406 14.70693,-20.05962 1.93319,-2.06832 4.73947,-1.71495 15.20581,1.93321 24.4561,13.90663 1.40313,1.82926 0.0935,3.72089 c -20.97425,30.44281 -37.51043,65.88492 -51.09484,100.18374 q -0.50929,1.27841 0.71715,0.65479 c 29.89194,-15.18501 54.14017,-39.66191 67.42318,-70.72831 a 1.3303785,1.3095914 7.3 0 1 1.03935,-0.78993 c 8.12778,-1.11211 14.38471,5.8412 17.37807,12.55545 q 8.05502,18.04326 -5.97631,31.21192 c -17.53398,16.45305 -43.11257,27.79245 -65.60429,35.61882 a 0.73794431,0.73794431 0 0 0 -0.4989,0.68598 c -0.33259,22.02399 4.21979,67.46472 36.23204,65.90569 8.10698,-0.38456 20.12198,-16.3387 24.08191,-22.73077 q 2.03715,-3.30516 3.38832,-8.05502 c 6.82858,-23.97798 16.12045,-49.25518 29.93351,-70.1255 3.64815,-5.52937 7.63928,-10.81971 14.5718,-9.66603 q 13.31418,2.21384 22.47093,13.16867 1.85007,2.21384 0.12472,4.52121 -12.90883,17.23256 -22.51249,38.12367 -1.02897,2.24501 0.67558,0.4573 z M 229.2175,314.50258 c 0.88346,4.45885 4.92656,8.38762 9.68683,7.23393 21.28605,-5.13443 37.98853,-52.9345 42.61368,-71.92359 a 1.2264427,1.2888043 35.6 0 0 -0.13511,-0.94581 q -7.83677,-12.99198 -10.89249,-27.91716 -0.28062,-1.39274 -1.29919,-0.39497 c -17.51319,17.06627 -29.86076,42.62409 -36.86603,65.76021 -2.67115,8.82415 -4.92656,18.98907 -3.10769,28.18739 z m 429.37966,16.94153 q 6.8078,1.68376 12.55545,-0.8003 c 17.1702,-7.40023 31.60687,-36.09691 37.32336,-52.7786 1.67336,-4.8642 8.22132,-26.21264 -3.55462,-23.82209 q -12.58662,2.54642 -25.34994,4.10545 a 1.1017197,1.1017197 0 0 0 -0.89386,0.67558 c -9.80114,23.08415 -17.97049,46.78152 -20.5481,71.96517 a 0.61322134,0.61322134 0 0 0 0.46771,0.65479 z"
     id="path58"
     style="display:inline;stroke-width:1.03936" />
  <path
     fill="#ffffff"
     d="m 121.12424,242.47506 c 22.76196,-11.17311 43.52833,-31.15996 57.47652,-51.94713 4.6979,-7.00528 8.64746,-16.505 8.80338,-24.7783 0.4573,-25.66176 -29.6633,-32.5423 -49.52543,-33.3634 C 116.3432,131.49237 40.033529,135.21329 29.930968,110.64286 24.017019,96.268535 41.208004,74.629096 50.728525,65.181331 a 0.41574328,0.4053497 51.5 0 1 0.644402,0.08315 c 18.83317,31.19114 57.247853,35.556449 89.343223,41.304109 23.89485,4.27176 63.9829,13.67794 76.74621,36.87642 11.08995,20.15316 -3.21162,47.21804 -17.30531,62.28872 q -14.20802,15.18503 -32.61506,25.37074 c -0.60282,0.3326 -0.84187,1.33039 0.24944,1.35117 8.13817,0.15591 19.53994,5.90356 19.23854,15.5696 -0.14552,4.56277 -1.40314,9.75955 -2.92061,14.80044 -7.49377,24.91342 -21.8473,58.57823 -8.78257,83.69953 a 0.33259461,0.33259461 0 0 1 -0.28064,0.48849 c -24.69515,1.08094 -53.57891,-6.92213 -45.1705,-39.16301 q 4.6979,-17.97052 11.12112,-35.40055 c 2.20346,-5.9867 8.90732,-23.73893 0.53008,-25.97356 -6.62071,-1.7773 -21.2029,5.48782 -27.0233,8.87612 a 1.642186,1.590218 87.9 0 0 -0.67559,0.74834 c -11.9838,27.31432 -23.36477,59.1083 -20.974243,90.39298 a 0.49889193,0.48849836 87.1 0 1 -0.478106,0.54047 c -28.97731,0.977 -44.15194,-17.3365 -35.296608,-45.5135 14.499048,-46.1475 38.5498,-88.97945 53.558127,-135.07499 q 2.27619,-7.01567 2.36973,-14.97715 a 0.65479567,0.66518924 84.1 0 1 0.51969,-0.62362 c 11.40176,-2.35934 31.23271,-1.25761 34.25724,13.70914 1.73573,8.58511 -3.71051,22.56447 -7.23393,31.05602 q -9.64525,23.20888 -20.34024,45.97081 -0.8107,1.74613 0.91462,0.89386 z"
     id="path60"
     style="stroke-width:1.03936" />
  <path
     fill="#fdf50d"
     d="m 583.17094,120.68306 c 5.27994,7.21315 14.77967,12.59702 22.6684,16.71288 a 1.465495,1.1121132 10 0 1 0.67558,0.72756 q 0.24945,0.72754 0.14551,1.50707 a 0.82109297,0.89384805 83.6 0 1 -0.58203,0.67557 l -4.06389,1.41353 q -2.54643,0.88345 -4.7083,-0.87306 c -4.41728,-3.59618 -8.96966,-5.97631 -14.38473,-9.91548 Q 560.32584,114.49888 564.37934,87.392416 c 0.35338,-2.369737 1.54864,-5.747651 1.39274,-9.135959 A 0.7483379,0.71715716 78.5 0 1 566.219,77.5393 q 2.75431,-1.060146 4.59397,-0.11433 1.98518,1.018572 1.63179,3.232404 c -2.26579,13.989762 2.58801,28.894166 10.72618,40.025686 z"
     id="path62"
     style="stroke-width:1.03936" />
  <path
     fill="#fef507"
     d="m 19.932342,133.5815 c -6.277723,-6.16339 -9.541308,-12.74253 -9.426978,-21.78495 a 1.6213988,1.2888043 70.4 0 1 0.322201,-0.93542 c 1.725334,-2.05793 3.544211,-0.38456 4.406879,1.46549 5.622927,12.02537 22.606039,21.47315 34.444329,25.96317 11.360186,4.30295 23.260837,5.30073 34.964009,8.46038 2.203441,0.59242 4.292555,1.79809 1.444711,4.05349 q -2.795875,2.22424 -4.812231,1.07053 c -3.107681,-1.77729 -5.8308,-2.8998 -9.614062,-2.81665 -4.022317,0.0832 -8.553918,0.76913 -12.524266,-0.47811 -4.230189,-1.33037 -8.169356,-1.07053 -12.420332,-2.14107 q -5.934735,-1.48628 -6.890944,-1.72534 -11.40176,-2.80627 -19.893316,-11.13152 z"
     id="path64"
     style="stroke-width:1.03936" />
  <path
     fill="#ffffff"
     d="m 1076.7414,322.32894 c -5.2073,8.82416 -10.6845,18.78121 -17.5859,24.48728 a 1.3199849,1.2991978 27.1 0 1 -0.9354,0.29102 c -20.7248,-1.42391 -34.6315,-21.41078 -35.4838,-40.53496 q -0.094,-2.13068 -0.9977,-0.19749 -7.1197,15.14346 -15.819,29.40345 -3.4923,5.71647 -7.89926,9.76997 c -2.05793,1.89163 -4.60434,1.80848 -7.35863,1.01858 -23.89484,-6.8182 -34.91204,-29.51779 -29.97509,-53.23593 q 9.62446,-46.28263 32.5423,-87.55554 0.23906,-0.44693 -0.27023,-0.37417 -13.36615,1.9436 -26.83622,-0.0312 a 0.69636999,0.69636999 0 0 0 -0.72756,0.39495 q -8.88651,18.80199 -17.84578,37.53123 c -8.80335,18.43821 -17.71066,39.49561 -25.28758,55.84472 -6.51679,14.06251 -14.65495,30.77539 -24.79909,44.06877 -4.33412,5.69569 -9.26067,4.02232 -15.28896,1.46551 -16.41147,-6.94292 -25.9008,-22.89708 -25.78647,-40.49341 q 0.0415,-6.02826 2.54643,-16.95192 9.83232,-42.98786 31.33665,-81.61041 0.24944,-0.44693 -0.25985,-0.36377 -13.35575,2.27619 -26.79466,0.0936 a 0.6859764,0.67558283 17.2 0 0 -0.72754,0.37416 c -9.84272,20.55851 -20.01803,41.05465 -28.85258,62.06008 q -13.77149,32.80214 -29.55936,61.51962 -3.64813,6.65187 -9.42696,13.63636 c -3.2636,3.95997 -6.04908,5.06168 -10.88209,3.4195 -19.37364,-6.56874 -29.99589,-21.62904 -30.18296,-41.68866 -0.0832,-8.89691 1.77731,-15.871 4.51082,-26.30616 6.64149,-25.2564 16.42185,-52.72664 30.80658,-74.6571 3.91837,-5.9763 8.15896,-11.70317 16.12044,-10.14414 q 12.75292,2.48408 21.16132,12.64899 1.94361,2.34895 0.42615,4.98892 -17.40925,30.15179 -30.131,63.95171 c -1.90203,5.05129 -11.59924,33.83111 1.26802,31.99146 4.38609,-0.62362 9.57249,-9.3958 12.60741,-13.87544 18.41744,-27.16883 34.94322,-60.68814 41.26253,-93.08492 a 0.89384805,0.87306087 25.1 0 0 -0.31181,-0.84188 q -11.17311,-9.38541 -8.95927,-24.1339 a 0.36377537,0.36377537 0 0 0 -0.42615,-0.41574 c -9.99862,1.93321 -18.63569,-2.16186 -22.67878,-11.58885 -6.82859,-15.95414 9.66602,-32.23049 25.589,-25.06932 q 9.2191,4.15744 11.19388,14.81086 a 0.44692402,0.43653045 75 0 0 0.58203,0.34299 l 7.09884,-2.50486 a 0.72755074,0.72755074 0 0 1 0.96659,0.77952 c -3.13886,23.635 14.80047,42.26031 38.11327,41.60551 9.53092,-0.27023 19.69584,6.20496 26.25418,12.77372 q 2.2762,2.29697 0.6548,5.09286 -17.76262,30.64027 -30.6091,65.14696 c -2.66076,7.16118 -6.76622,20.34024 -4.31333,26.90898 1.81888,4.8642 6.73504,5.58135 10.17532,1.57983 5.73725,-6.67269 9.25028,-12.45151 14.97714,-21.60826 15.61117,-24.9238 28.33291,-53.40222 34.68339,-82.20284 a 1.8084833,1.8084833 0 0 0 -0.64441,-1.81887 c -17.04547,-13.52206 -7.33786,-44.35981 13.19986,-48.12228 a 0.38456253,0.39495611 88.2 0 1 0.45732,0.42614 c -2.63998,23.70774 14.09368,42.49934 38.21715,41.73022 9.3646,-0.29102 19.3633,6.25694 26.0985,12.64899 q 2.4215,2.30738 0.7586,5.20718 c -7.0573,12.35797 -45.63826,84.14644 -33.05168,94.97655 4.64588,3.99114 9.53098,-2.23461 11.81758,-5.41505 9.6868,-13.45969 17.0351,-26.51403 25.641,-43.38281 6.3506,-12.43073 38.3419,-69.29401 55.4914,-65.04303 12.2539,3.03492 33.249,13.6052 34.0181,28.57195 a 0.75873148,0.75873148 0 0 0 0.5301,0.67558 q 7.764,2.4321 13.8962,9.63484 3.3779,3.97036 1.1848,8.03425 c -5.7683,10.67422 -30.3908,57.53887 -23.3439,66.86191 2.1411,2.84784 5.4566,1.01858 7.3898,-1.21605 12.9712,-15.00833 23.9885,-36.25281 32.48,-52.27972 1.0185,-1.91241 3.2843,-4.77065 5.1137,-1.69415 a 3.1596489,3.1180746 42.3 0 1 0.1558,2.91021 c -13.2622,28.75904 -26.6595,57.1543 -42.8112,84.22958 q -2.723,4.56279 -5.8723,8.11739 a 3.3883077,3.4194885 22.4 0 1 -2.7232,1.15369 q -26.4413,-1.34078 -35.4213,-24.69514 -0.187,-0.47811 -0.4469,-0.0415 z m -11.8072,-15.50723 q 1.5383,1.19528 3.1182,0.0624 c 4.4484,-3.20122 8.9489,-7.02606 11.0276,-12.35797 q 10.9755,-28.18739 27.0024,-53.47498 0.7588,-1.19525 -0.6547,-1.09132 -2.0372,0.14551 -2.6399,-1.2888 a 0.77951864,0.97699671 50.3 0 1 0.187,-0.90426 q 6.6416,-8.17974 10.0506,-18.84355 c 2.5569,-7.97188 -8.2422,-2.88941 -10.5391,-0.98739 -23.4271,19.34246 -36.1905,46.99977 -40.0464,76.78779 -0.7276,5.56056 -1.6631,8.85533 2.4943,12.09812 z"
     id="path66"
     style="display:inline;stroke-width:1.03936" />
  <g
     id="g519"
     style="display:inline"
     transform="matrix(1.0393582,0,0,1.0393582,-128.71668,-482.64359)">
    <path
       fill="#212121"
       d="m 933.6,738.99 -7.34,21.28 q -4.38,11.12 -9.46,22 c -5.69,12.17 -8.96,19.91 -21.63,23.11 -12.68,3.2 -25.9,-0.4 -35.87,-8.68 -7.58,-6.29 -13.11,-16.34 -16.77,-25.7 q -2.12,-5.43 -3.58,-6.92 c -4.52,-4.61 -8.8,0.95 -10.88,5.12 -13.37,26.87 -46.74,47.52 -76.31,48.37 -9.55,0.27 -16.07,-4.24 -21.51,-11.68 -5.07,-6.93 -12.15,-18.54 -20.6,-6.07 -8.99,13.26 -28.18,6.55 -36.36,-3.6 -2.98,-3.68 -5.55,-7.09 -6.99,-11.19 -2.59,-7.36 -10.26,-15.59 -15.45,-21.44 q -0.32,-0.37 -0.17,0.1 3.77,11.92 8.3,23.51 1.13,2.88 0.87,5.28 c -1.62,15.06 -17.97,18.93 -29.78,13.43 -10.72,-5 -19.32,-17.4 -25.39,-27.11 q -0.69,-1.09 -0.99,0.16 c -2.92,11.99 -9.76,22.4 -21.56,27.61 -6.53,2.88 -17.09,-1.28 -22.5,-4.85 -12.73,-8.39 -18.5,-24.3 -21.94,-38.68 -0.76,-3.18 -3.88,-6.34 -6.57,-2.88 q -1.28,1.64 -1.34,3.7 c -0.47,14.35 0.24,27.89 2.08,41.69 0.6,4.55 1.06,9.4 -1.75,12.77 -3.98,4.76 -11.86,6.18 -17.81,5.57 -20.94,-2.13 -35.7,-18.78 -39.02,-38.91 -0.27,-1.62 -1.99,-15.94 -2.39,-15.99 a 0.34,0.3 -75.7 0 0 -0.34,0.23 c -6.43,19.7 -18.76,37.15 -41.09,37.99 -15.64,0.58 -28.58,-11.43 -31.72,-26.21 q -1.57,-7.38 -3.31,-22.08 -0.08,-0.63 -0.37,-0.28 -0.11,0.14 -0.16,0.44 c -2.19,12.95 -3.65,29.47 -14.22,38.55 -13.43,11.53 -43.31,14.26 -57.47,2.9 -3.39,-2.72 -11.37,-15.24 -16.07,-10.49 -2.5,2.53 -1.04,5.98 -0.37,9.21 1.5,7.22 -11.87,9.11 -16.51,9.2 -22.1,0.43 -45.32,-9.95 -51.73,-32.45 -0.59,-2.08 -0.14,-5.01 -0.1,-6.7 q 0.46,-22.4 1.43,-44.81 0.12,-2.79 -0.65,-0.1 -2.9,10.18 -5.84,20.57 c -2.82,9.95 -3.83,16.9 -2.85,26.25 q 0.64,6.12 0.58,9.64 -0.17,9.74 -0.12,19.49 c 0.05,10.67 1.15,17.87 -7.01,23.1 -7.56,4.85 -17.96,2.36 -25.17,-2.26 q -21.76,-13.97 -31.05,-38.22 -3.36,-9.22 -4.54,-18.96 c -1.79,-22.85 6.03,-44.32 15.56,-64.21 Q 194.45,665 211.24,630.25 c 5.29,-10.96 5.66,-25.32 -9.59,-27.96 q -14.96,-2.6 -29.32,-7.62 c -11.8,-4.13 -30.32,-14.82 -33.19,-27.11 -1.41,-6.02 0.64,-13.11 2.33,-19.32 q 5.78,-21.36 14.43,-40.33 c 4.6,-10.11 10.51,-13.42 19.62,-4.37 10.74,10.68 20.82,22.4 33.77,31.07 24.4,16.33 51,20.89 79.52,20.78 q 11.93,-0.05 16.67,0.95 c 30.94,6.53 46.54,40.97 51.37,68.81 a 0.45,0.44 -12.7 0 0 0.57,0.35 c 18.19,-5.52 37.5,-1.85 50.76,11.76 7.39,7.58 11.18,16.1 14.08,26.21 q 0.34,1.18 0.88,0.08 c 15.04,-30.5 50.95,-40.98 78.91,-20.08 a 0.71,0.71 -62.9 0 0 1.1,-0.36 q 8.65,-27.9 21.19,-54.42 c 6.44,-13.63 11.92,-24.22 20.72,-34.36 9.29,-10.68 24.29,-17.73 38.43,-14.82 19.37,4 24.64,26.96 19.14,43.34 -2.08,6.19 -5.24,12.58 -9.16,18.1 a 0.63,0.63 34 0 0 0.18,0.9 l 4.86,3 a 0.75,0.75 -57.6 0 0 1.02,-0.23 q 6.55,-10.22 18.74,-11.12 c 15.65,-1.16 25.92,13.02 24.62,27.64 -0.47,5.22 -3.05,10.72 -5.39,15.63 q -0.46,0.97 0.48,0.45 c 12.51,-7 30.99,-17.48 44.31,-5.96 4.6,3.98 6.15,9.66 5.36,15.52 q -0.27,2.02 1.31,0.73 22.59,-18.34 51.81,-19.45 a 0.97,0.93 15.4 0 0 0.78,-0.42 c 5.4,-8.08 -3.04,-15.51 -9.43,-18.94 Q 710.89,597.3 694.8,586.72 c -14.92,-9.81 -20.56,-31.53 -17.75,-48.23 3.81,-22.61 22.79,-40.42 42.51,-50.07 a 0.38,0.37 -17.6 0 1 0.54,0.27 c 4.94,30.75 33.56,43.57 60.59,49.57 q 22.84,5.07 46.06,7.78 c 9.95,1.16 22.24,1.84 34.32,2.85 20.82,1.75 31.06,19.37 35.27,37.72 a 0.59,0.59 80.8 0 0 0.62,0.45 q 37.64,-2.88 50.66,-37.58 a 0.55,0.55 17.1 0 1 0.65,-0.34 c 15.39,3.94 29.25,11.6 31.93,28.83 q 1.31,8.4 2.81,16.77 c 2.27,12.63 13.15,27.29 28.03,23.4 5.53,-1.44 8.54,-4.83 12.2,-9.13 q 12.77,-15 25.97,-27.8 c 3.09,-2.99 7.94,-7.71 12.82,-6.91 8.23,1.35 9.95,15.37 10.85,21.65 1.83,12.77 11.45,24.2 22.36,28.81 5.16,2.18 11.71,3.43 17.57,4.85 16.8,4.06 16.04,10.81 15.9,26.38 -0.04,3.48 1.97,6.77 5.71,5.74 q 2.88,-0.79 4.06,-3.53 c 5.61,-12.98 10.94,-25.18 23.75,-32.35 q 9.72,-5.43 18.99,-5.75 c 24.2,-0.85 23.68,28.21 43.5,36.51 4.59,1.92 10.21,-0.39 13.03,4.82 2.77,5.11 1.74,10.9 1.06,16.05 a 0.44,0.43 -87.1 0 0 0.44,0.49 c 7.74,-0.01 22.45,-1.22 24.58,7.65 1.27,5.3 -3.09,13.95 -5.48,19.46 -10.78,24.86 -20.49,49 -34.84,73.39 -4.68,7.97 -9.3,16.44 -15.08,22.96 -13.45,15.19 -38.19,-2.46 -48.76,-12.23 a 0.42,0.41 37.3 0 0 -0.63,0.08 c -5.75,9.15 -14.68,16.81 -25.74,15.85 -12.85,-1.12 -22.12,-11.93 -24.34,-24.47 a 0.67,0.66 -2.3 0 0 -0.59,-0.54 q -3.23,-0.32 -6.14,0.52 a 0.64,0.64 80.7 0 0 -0.46,0.64 c 0.43,11.26 -6.12,23.12 -17.84,24.79 -13.19,1.89 -26.75,-7.08 -33.49,-18.08 q -14,-22.86 -10.05,-49.78 c 0.25,-1.74 3.81,-20.16 3.7,-20.19 a 0.56,0.27 -56.3 0 0 -0.45,0.26 q -8.98,11.71 -12.09,16.78 c -8.13,13.28 -13.02,34.55 -17.08,45.88 -5.45,15.21 -18.1,33.94 -36.5,33.79 -14.17,-0.11 -26.64,-11.91 -32.07,-24.42 -9.04,-20.81 -6.42,-48.06 -6.37,-70.26 q 0,-0.57 -0.16,-0.03 z M 656.46,704.76 q -1.64,1.72 -0.65,-0.44 9.24,-20.1 21.66,-36.68 1.66,-2.22 -0.12,-4.35 -8.81,-10.54 -21.62,-12.67 c -6.67,-1.11 -10.51,3.98 -14.02,9.3 -13.29,20.08 -22.23,44.4 -28.8,67.47 q -1.3,4.57 -3.26,7.75 c -3.81,6.15 -15.37,21.5 -23.17,21.87 -30.8,1.5 -35.18,-42.22 -34.86,-63.41 a 0.71,0.71 81.2 0 1 0.48,-0.66 c 21.64,-7.53 46.25,-18.44 63.12,-34.27 q 13.5,-12.67 5.75,-30.03 c -2.88,-6.46 -8.9,-13.15 -16.72,-12.08 a 1.28,1.26 7.3 0 0 -1,0.76 c -12.78,29.89 -36.11,53.44 -64.87,68.05 q -1.18,0.6 -0.69,-0.63 c 13.07,-33 28.98,-67.1 49.16,-96.39 q 1.26,-1.82 -0.09,-3.58 -8.9,-11.52 -23.53,-13.38 -2.7,-0.34 -4.56,1.65 -8.19,8.78 -14.15,19.3 c -20.19,35.64 -37.08,73.68 -52.08,111.76 q -3.08,7.82 -6.35,13.28 c -6.38,10.62 -27.96,42.58 -41.3,42.67 q -2.01,0.01 -2.78,-1.83 -2.01,-4.77 -1.49,-9.98 4.05,-39.87 31.6,-68.62 c 1.27,-1.33 11.93,-9.24 9.89,-1.92 q -2.56,9.24 -6.15,17.86 -0.95,2.28 1.46,2.83 c 2.52,0.58 4.43,0.06 5.68,-2.4 5.11,-10.04 11.23,-27.57 1.81,-36.54 q -6.6,-6.27 -15.44,-9.29 c -6.79,-2.31 -11.31,-1.79 -16.37,3.12 -16.63,16.11 -28.67,37.69 -37.8,58.68 a 0.58,0.58 -56.4 0 1 -0.93,0.19 c -2.8,-2.74 -10.34,-10.82 -9.77,-14.89 q 1.86,-13.07 2.57,-23.44 c 0.81,-11.86 -0.26,-17.41 -8.94,-25.48 -3.72,-3.46 -7.25,1.56 -9.29,3.9 a 0.69,0.68 31.5 0 1 -0.78,0.18 c -5.81,-2.4 -11.99,-5.16 -18.31,-2.3 -5.23,2.36 -12.62,10.25 -16.87,15.51 q -18.41,22.81 -30.87,49.18 c -12.31,26.03 -22.68,58.04 6.13,78 39.4,27.29 67.54,-56.94 73.36,-79.95 a 0.32,0.32 26.3 0 1 0.51,-0.17 l 9.2,7.5 a 0.69,0.68 30.6 0 1 0.21,0.78 q -5.62,14.19 -7.59,26.1 c -3.64,21.91 5.14,42.51 27.02,50.11 6.05,2.1 10.02,1.1 14.31,-3.29 12.56,-12.86 21.85,-27.63 30.49,-42.72 q 1.06,-1.85 0.8,0.31 c -2.22,18.41 5.53,35.47 22.07,43.66 3.72,1.84 15.21,7.03 14.84,-1.24 -1.41,-31.37 7.51,-64.23 18.23,-93.46 0.41,-1.11 1.09,-1.89 2.3,-1.24 a 0.9,0.79 -77.2 0 1 0.42,0.78 c -0.3,26.92 6.32,73.08 29.58,90.87 4.13,3.16 10.9,5.8 15.9,3.21 10.12,-5.24 20.21,-23.53 25.97,-33.65 q 1.27,-2.23 1.48,0.32 2.35,28.19 29.49,37.02 c 6.8,2.21 8.46,-0.24 7.82,-6.82 q -3.25,-33.29 4.14,-65.96 0.48,-2.11 2.01,-3.64 13.51,-13.54 28.89,-26.48 c 0.96,-0.82 1.07,0.09 0.83,0.68 q -9.66,23.94 -15.13,49.13 c -4.88,22.48 3.11,43.13 24.72,51.82 4.59,1.84 9.18,3.37 12.22,-0.99 q 10.03,-14.36 17.16,-29.51 1.26,-2.67 1.11,0.27 c -1.13,23.2 16.06,31.49 36.2,31.95 a 0.81,0.74 -74.9 0 0 0.7,-0.45 l 0.38,-0.8 a 0.61,0.56 22.6 0 1 0.72,-0.26 c 47.17,15.88 114.61,-95.98 74.52,-101.05 -5.45,-0.69 -12.82,1.63 -18.95,2.55 q -0.48,0.07 -0.01,-0.05 8.64,-2.14 16,-6.08 c 50.27,-26.91 89.99,-120.35 -5.88,-123.88 q -10.59,-0.39 -21.17,-0.81 c -28.8,-1.15 -73.36,-9.63 -84.06,-41.69 a 0.34,0.34 60.9 0 0 -0.54,-0.16 c -12.18,10.16 -26.41,30.16 -16.52,45.7 14.11,22.17 70.95,19.06 93.42,18.68 23.66,-0.39 51.11,5.8 49.1,36.39 -1.99,30.37 -30.3,64.72 -59.93,72.65 q -1.78,0.47 -1,-1.19 11.01,-23.44 20.85,-47.18 c 3.08,-7.43 8.17,-20.74 6.21,-28.42 -3.5,-13.78 -21.81,-14.91 -32.69,-12.67 a 0.68,0.65 86.7 0 0 -0.52,0.61 q -0.88,11.56 -5.03,22.44 -11.34,29.75 -24.15,58.91 c -9.4,21.4 -21.66,44.98 -35.92,63.81 -2.58,3.41 -6.35,7.04 -10.16,3.02 -11.1,-11.71 25.44,-78.6 32.95,-91.59 a 1.33,1.19 -38.8 0 0 0.15,-0.92 c -1.82,-8.2 -18.02,-16.06 -25.55,-14.93 q -4.38,0.66 -7.61,3.94 -19.81,20 -40.94,44.82 -2.54,2.99 -4.61,5.17 z m -416.08,-7.1 q -1.66,0.82 -0.88,-0.86 10.29,-21.9 19.57,-44.23 c 3.39,-8.17 8.63,-21.62 6.96,-29.88 -2.91,-14.4 -21.99,-15.46 -32.96,-13.19 a 0.64,0.63 -5.9 0 0 -0.5,0.6 q -0.09,7.66 -2.28,14.41 c -14.44,44.35 -37.58,85.56 -51.53,129.96 -8.52,27.11 6.08,44.73 33.96,43.79 a 0.48,0.47 87.1 0 0 0.46,-0.52 c -2.3,-30.1 8.65,-60.69 20.18,-86.97 a 1.58,1.53 87.9 0 1 0.65,-0.72 c 5.6,-3.26 19.63,-10.25 26,-8.54 8.06,2.15 1.61,19.23 -0.51,24.99 q -6.18,16.77 -10.7,34.06 c -8.09,31.02 19.7,38.72 43.46,37.68 a 0.32,0.32 -15.4 0 0 0.27,-0.47 c -12.57,-24.17 1.24,-56.56 8.45,-80.53 1.46,-4.85 2.67,-9.85 2.81,-14.24 0.29,-9.3 -10.68,-14.83 -18.51,-14.98 -1.05,-0.02 -0.82,-0.98 -0.24,-1.3 q 17.71,-9.8 31.38,-24.41 c 13.56,-14.5 27.32,-40.54 16.65,-59.93 -12.28,-22.32 -50.85,-31.37 -73.84,-35.48 -30.88,-5.53 -67.84,-9.73 -85.96,-39.74 a 0.4,0.39 51.5 0 0 -0.62,-0.08 c -9.16,9.09 -25.7,29.91 -20.01,43.74 9.72,23.64 83.14,20.06 103.86,20.92 19.11,0.79 48.09,7.41 47.65,32.1 -0.15,7.96 -3.95,17.1 -8.47,23.84 -13.42,20 -33.4,39.23 -55.3,49.98 z m 919.86,76.87 q 8.64,22.47 34.08,23.76 a 3.29,3.26 -67.6 0 0 2.62,-1.11 q 3.03,-3.42 5.65,-7.81 c 15.54,-26.05 28.43,-53.37 41.19,-81.04 a 3.04,3 42.3 0 0 -0.15,-2.8 c -1.76,-2.96 -3.94,-0.21 -4.92,1.63 -8.17,15.42 -18.77,35.86 -31.25,50.3 -1.86,2.15 -5.05,3.91 -7.11,1.17 -6.78,-8.97 16.91,-54.06 22.46,-64.33 q 2.11,-3.91 -1.14,-7.73 -5.9,-6.93 -13.37,-9.27 a 0.73,0.73 7 0 1 -0.51,-0.65 c -0.74,-14.4 -20.94,-24.57 -32.73,-27.49 -16.5,-4.09 -47.28,50.62 -53.39,62.58 -8.28,16.23 -15.35,28.79 -24.67,41.74 -2.2,3.06 -6.9,9.05 -11.37,5.21 -12.11,-10.42 25.01,-79.49 31.8,-91.38 q 1.6,-2.79 -0.73,-5.01 c -6.48,-6.15 -16.1,-12.45 -25.11,-12.17 -23.21,0.74 -39.31,-17.34 -36.77,-40.15 a 0.38,0.37 -1.8 0 0 -0.44,-0.41 c -19.76,3.62 -29.1,33.29 -12.7,46.3 a 1.74,1.74 -64.5 0 1 0.62,1.75 c -6.11,27.71 -18.35,55.11 -33.37,79.09 -5.51,8.81 -8.89,14.37 -14.41,20.79 -3.31,3.85 -8.04,3.16 -9.79,-1.52 -2.36,-6.32 1.59,-19 4.15,-25.89 q 12.36,-33.2 29.45,-62.68 1.56,-2.69 -0.63,-4.9 c -6.31,-6.32 -16.09,-12.55 -25.26,-12.29 -22.43,0.63 -39.69,-17.29 -36.67,-40.03 a 0.7,0.7 -6 0 0 -0.93,-0.75 l -6.83,2.41 a 0.43,0.42 75 0 1 -0.56,-0.33 q -1.9,-10.25 -10.77,-14.25 c -15.32,-6.89 -31.19,8.77 -24.62,24.12 3.89,9.07 12.2,13.01 21.82,11.15 a 0.35,0.35 88.9 0 1 0.41,0.4 q -2.13,14.19 8.62,23.22 a 0.86,0.84 25.1 0 1 0.3,0.81 c -6.08,31.17 -21.98,63.42 -39.7,89.56 -2.92,4.31 -7.91,12.75 -12.13,13.35 -12.38,1.77 -3.05,-25.92 -1.22,-30.78 q 12.24,-32.52 28.99,-61.53 1.46,-2.54 -0.41,-4.8 -8.09,-9.78 -20.36,-12.17 c -7.66,-1.5 -11.74,4.01 -15.51,9.76 -13.84,21.1 -23.25,47.53 -29.64,71.83 -2.63,10.04 -4.42,16.75 -4.34,25.31 0.18,19.3 10.4,33.79 29.04,40.11 4.65,1.58 7.33,0.52 10.47,-3.29 q 5.56,-6.72 9.07,-13.12 15.19,-27.63 28.44,-59.19 c 8.5,-20.21 18.29,-39.93 27.76,-59.71 a 0.66,0.65 17.2 0 1 0.7,-0.36 q 12.93,2.1 25.78,-0.09 0.49,-0.08 0.25,0.35 -20.69,37.16 -30.15,78.52 -2.41,10.51 -2.45,16.31 c -0.11,16.93 9.02,32.28 24.81,38.96 5.8,2.46 10.54,4.07 14.71,-1.41 9.76,-12.79 17.59,-28.87 23.86,-42.4 7.29,-15.73 15.86,-35.99 24.33,-53.73 q 8.62,-18.02 17.17,-36.11 a 0.67,0.67 -73.4 0 1 0.7,-0.38 q 12.96,1.9 25.82,0.03 0.49,-0.07 0.26,0.36 -22.05,39.71 -31.31,84.24 c -4.75,22.82 5.85,44.66 28.84,51.22 2.65,0.76 5.1,0.84 7.08,-0.98 q 4.24,-3.9 7.6,-9.4 8.37,-13.72 15.22,-28.29 0.87,-1.86 0.96,0.19 c 0.82,18.4 14.2,37.63 34.14,39 a 1.27,1.25 27.1 0 0 0.9,-0.28 c 6.64,-5.49 11.91,-15.07 16.92,-23.56 q 0.25,-0.42 0.43,0.04 z"
       id="path54"
       style="display:inline" />
    <path
       fill="#212121"
       d="m 757.5,783.26 a 0.59,0.59 9.6 0 1 -0.45,-0.63 c 2.48,-24.23 10.34,-47.03 19.77,-69.24 a 1.06,1.06 -81.9 0 1 0.86,-0.65 q 12.28,-1.5 24.39,-3.95 c 11.33,-2.3 5.03,18.24 3.42,22.92 -5.5,16.05 -19.39,43.66 -35.91,50.78 q -5.53,2.39 -12.08,0.77 z"
       id="path72"
       style="display:inline" />
    <path
       fill="#212121"
       d="m 353.7,773.92 c -4.58,1.11 -8.47,-2.67 -9.32,-6.96 -1.75,-8.85 0.42,-18.63 2.99,-27.12 6.74,-22.26 18.62,-46.85 35.47,-63.27 q 0.98,-0.96 1.25,0.38 2.94,14.36 10.48,26.86 a 1.24,1.18 -54.4 0 1 0.13,0.91 c -4.45,18.27 -20.52,64.26 -41,69.2 z"
       id="path70"
       style="display:inline"
       inkscape:label="path70" />
    <path
       fill="#212121"
       d="m 1148.45,759.57 c -4,-3.12 -3.1,-6.29 -2.4,-11.64 3.71,-28.66 15.99,-55.27 38.53,-73.88 2.21,-1.83 12.6,-6.72 10.14,0.95 q -3.28,10.26 -9.67,18.13 a 0.94,0.75 -39.7 0 0 -0.18,0.87 q 0.58,1.38 2.54,1.24 1.36,-0.1 0.63,1.05 -15.42,24.33 -25.98,51.45 c -2,5.13 -6.33,8.81 -10.61,11.89 q -1.52,1.09 -3,-0.06 z"
       id="path68"
       style="display:inline" />
  </g>
  <g
     id="g515"
     style="display:inline"
     transform="matrix(1.0393582,0,0,1.0393582,-128.71668,-482.64359)">
    <path
       fill="#f9f42a"
       d="m 1251.04,739.5 c -7.0133,16.24667 -15.0133,31.99667 -24,47.25 -5.28,9.48 -13.14,22.08 -21.86,25.74 -14.56,6.11 -33.13,-3.78 -44.12,-12.93 -0.2163,-0.17934 -0.5322,-0.16179 -0.72,0.04 -16.47,17.61 -40.12,16.97 -53.26,-3.92 -0.2867,-0.46 -0.5433,-0.44333 -0.77,0.05 -12.08,25.99 -43.26,20.24 -57.92,1.25 -10.2533,-13.27333 -15.5167,-28.53 -15.79,-45.77 -0.01,-0.40615 -0.2225,-0.73148 -0.44,-0.67 l -0.28,0.07 c -0.1298,0.0389 -0.252,0.19542 -0.32,0.41 -7.25,23.26 -14.8,58.21 -40.7,68.33 -19.62,7.67 -39.28,-4.13 -48.83,-21.11 -5.51,-9.81 -8.15,-21.6 -9,-32.44 -0.16667,-2.11333 -0.64,-2.18333 -1.42,-0.21 -3.96667,10.08667 -8.16667,19.53 -12.6,28.33 -12.49,24.75 -43.62,24.38 -62.85,9.29 -9.72,-7.62 -16.38,-19.56 -20.86,-31.29 -0.28667,-0.76667 -0.59333,-0.77667 -0.92,-0.03 -4.59,10.53 -12.22,18.34 -19.76,26.74 -14,15.61 -35.66,29.56 -57.33,29.52 -14.9,-0.03 -34.68,-9.25 -38.67,-25.51 -0.19,-0.76 -0.63,-1.18 -1.34,-1.3 -0.27557,-0.0469 -0.56655,0.11881 -0.72,0.41 -9.68,18.4 -33.77,14.15 -45.96,1.67 -1.42,-1.45333 -2.84333,-2.89333 -4.27,-4.32 -0.17169,-0.16714 -0.45677,-0.11623 -0.56,0.1 -4.31333,9.26667 -11.10333,14.53333 -20.37,15.8 -17.3,2.36 -29.55,-8.58 -39.03,-21.36 -0.14506,-0.18521 -0.4282,-0.16948 -0.54,0.03 -4.96,8.76 -17.19,21.29 -28.04,20.85 -19.3,-0.8 -32.29,-12.46 -40.16,-29.44 -0.0933,-0.19333 -0.21333,-0.33333 -0.36,-0.42 -0.31333,-0.18 -0.45667,-0.05 -0.43,0.39 0.40667,6.51333 1.02333,13.00333 1.85,19.47 0.68,5.3 0.82,8.98667 0.42,11.06 -1.9,9.8 -12.85,15.16 -21.87,15.44 -23.62,0.73 -42.43,-15.45 -49.24,-37.56 -0.28,-0.9 -0.68333,-0.96 -1.21,-0.18 -17.9,26.55 -57.63,29.69 -72.96,-1.86 -0.14667,-0.3 -0.3,-0.30333 -0.46,-0.01 -6.7,11.91 -16.29,18.27 -29.9,21.37 -17.43,3.98 -37.18,3.12 -50.14,-10.99 -0.22,-0.24 -0.36333,-0.19667 -0.43,0.13 -1.62,7.59 -8.08,11.07 -15.16,12.49 -22.42,4.47 -45.98,-4.28 -60.38,-21.83 -0.20667,-0.25333 -0.31667,-0.21333 -0.33,0.12 -0.29,9.61 0.94,17.79 -1.47,28.06 -4.3,18.31 -24.17,23.76 -39.82,16.5 -17.57,-8.16 -31.04,-28.33 -37.2,-46.01 2.83,1.19 2.89,3.92 3.94,5.73 4.49,7.74 7.52,11.73 11.02,17 4.56,6.87 9.46,12.17 16.33,16.72 10.82,7.18 19.98,10.57 31.71,4.03 2.50667,-1.4 4.48667,-2.93333 5.94,-4.6 0.21983,-0.25229 0.34685,-0.56276 0.36,-0.88 0.0667,-1.83333 -0.56,-3.35667 -1.88,-4.57 -0.21402,-0.194 -0.54166,-0.21448 -0.8,-0.05 -8.62,5.65 -16.5,4.61 -25.64,0.26 -8.92,-4.26 -15.04,-9.85 -21.69,-17.92 -2.65,-3.22 -4.63,-7.21 -7.06,-10.83 -0.95333,-1.43333 -1.79667,-3.09 -2.53,-4.97 -0.71,-1.8 -4.49,-7.22 -1.49,-8.21 6.19333,16.16667 16.54333,28.90667 31.05,38.22 7.21,4.62 17.61,7.11 25.17,2.26 8.16,-5.23 7.06,-12.43 7.01,-23.1 -0.0333,-6.5 0.007,-12.99667 0.12,-19.49 0.04,-2.34667 -0.15333,-5.56 -0.58,-9.64 -0.98,-9.35 0.03,-16.3 2.85,-26.25 1.96,-6.92667 3.90667,-13.78333 5.84,-20.57 0.51333,-1.79333 0.73,-1.76 0.65,0.1 -0.64667,14.94 -1.12333,29.87667 -1.43,44.81 -0.04,1.69 -0.49,4.62 0.1,6.7 6.41,22.5 29.63,32.88 51.73,32.45 4.64,-0.09 18.01,-1.98 16.51,-9.2 -0.67,-3.23 -2.13,-6.68 0.37,-9.21 4.7,-4.75 12.68,7.77 16.07,10.49 14.16,11.36 44.04,8.63 57.47,-2.9 10.57,-9.08 12.03,-25.6 14.22,-38.55 0.0333,-0.2 0.0867,-0.34667 0.16,-0.44 0.19333,-0.23333 0.31667,-0.14 0.37,0.28 1.16,9.8 2.26333,17.16 3.31,22.08 3.14,14.78 16.08,26.79 31.72,26.21 22.33,-0.84 34.66,-18.29 41.09,-37.99 0.0535,-0.15506 0.19661,-0.25185 0.34,-0.23 0.4,0.05 2.12,14.37 2.39,15.99 3.32,20.13 18.08,36.78 39.02,38.91 5.95,0.61 13.83,-0.81 17.81,-5.57 2.81,-3.37 2.35,-8.22 1.75,-12.77 -1.84,-13.8 -2.55,-27.34 -2.08,-41.69 0.04,-1.37333 0.48667,-2.60667 1.34,-3.7 2.69,-3.46 5.81,-0.3 6.57,2.88 3.44,14.38 9.21,30.29 21.94,38.68 5.41,3.57 15.97,7.73 22.5,4.85 11.8,-5.21 18.64,-15.62 21.56,-27.61 0.2,-0.83333 0.53,-0.88667 0.99,-0.16 6.07,9.71 14.67,22.11 25.39,27.11 11.81,5.5 28.16,1.63 29.78,-13.43 0.17333,-1.6 -0.11667,-3.36 -0.87,-5.28 -3.02,-7.72667 -5.78667,-15.56333 -8.3,-23.51 -0.1,-0.31333 -0.0433,-0.34667 0.17,-0.1 5.19,5.85 12.86,14.08 15.45,21.44 1.44,4.1 4.01,7.51 6.99,11.19 8.18,10.15 27.37,16.86 36.36,3.6 8.45,-12.47 15.53,-0.86 20.6,6.07 5.44,7.44 11.96,11.95 21.51,11.68 29.57,-0.85 62.94,-21.5 76.31,-48.37 2.08,-4.17 6.36,-9.73 10.88,-5.12 0.97333,0.99333 2.16667,3.3 3.58,6.92 3.66,9.36 9.19,19.41 16.77,25.7 9.97,8.28 23.19,11.88 35.87,8.68 12.67,-3.2 15.94,-10.94 21.63,-23.11 3.38667,-7.25333 6.54,-14.58667 9.46,-22 2.97571,-9.14603 6.07047,-18.38171 7.34,-21.28 l 5.77,-18.97 c 0.10667,-0.36 0.16,-0.35 0.16,0.03 -0.05,22.2 -2.67,49.45 6.37,70.26 5.43,12.51 17.9,24.31 32.07,24.42 18.4,0.15 31.05,-18.58 36.5,-33.79 4.06,-11.33 8.95,-32.6 17.08,-45.88 2.0733,-3.38 6.1033,-8.97333 12.09,-16.78 0.1508,-0.19209 0.3335,-0.29766 0.45,-0.26 0.11,0.03 -3.45,18.45 -3.7,20.19 -2.6333,17.94667 0.7167,34.54 10.05,49.78 6.74,11 20.3,19.97 33.49,18.08 11.72,-1.67 18.27,-13.53 17.84,-24.79 -0.012,-0.29364 0.1779,-0.55758 0.46,-0.64 1.94,-0.56 3.9867,-0.73333 6.14,-0.52 0.297,0.0302 0.5376,0.25044 0.59,0.54 2.22,12.54 11.49,23.35 24.34,24.47 11.06,0.96 19.99,-6.7 25.74,-15.85 0.135,-0.21577 0.436,-0.25399 0.63,-0.08 10.57,9.77 35.31,27.42 48.76,12.23 5.78,-6.52 10.4,-14.99 15.08,-22.96 14.35,-24.39 24.06,-48.53 34.84,-73.39 2.39,-5.51 6.75,-14.16 5.48,-19.46 -2.13,-8.87 -16.84,-7.66 -24.58,-7.65 -0.2624,0.009 -0.4706,-0.22314 -0.44,-0.49 0.68,-5.15 1.71,-10.94 -1.06,-16.05 -2.82,-5.21 -8.44,-2.9 -13.03,-4.82 -19.82,-8.3 -19.3,-37.36 -43.5,-36.51 -6.18,0.21333 -12.51,2.13 -18.99,5.75 -12.81,7.17 -18.14,19.37 -23.75,32.35 -0.7867,1.82667 -2.14,3.00333 -4.06,3.53 -3.74,1.03 -5.75,-2.26 -5.71,-5.74 0.14,-15.57 0.9,-22.32 -15.9,-26.38 -5.86,-1.42 -12.41,-2.67 -17.57,-4.85 -10.91,-4.61 -20.53,-16.04 -22.36,-28.81 -0.9,-6.28 -2.62,-20.3 -10.85,-21.65 -4.88,-0.8 -9.73,3.92 -12.82,6.91 -8.8,8.53333 -17.4567,17.8 -25.97,27.8 -3.66,4.3 -6.67,7.69 -12.2,9.13 -14.88,3.89 -25.76,-10.77 -28.03,-23.4 -1,-5.58 -1.93667,-11.17 -2.81,-16.77 -2.68,-17.23 -16.54,-24.89 -31.93,-28.83 -0.27164,-0.0688 -0.55158,0.0776 -0.65,0.34 -8.68,23.13333 -25.56667,35.66 -50.66,37.58 -0.28919,0.0228 -0.55206,-0.16798 -0.62,-0.45 -4.21,-18.35 -14.45,-35.97 -35.27,-37.72 -12.08,-1.01 -24.37,-1.69 -34.32,-2.85 -15.48,-1.80667 -30.83333,-4.4 -46.06,-7.78 -27.03,-6 -55.65,-18.82 -60.59,-49.57 -0.0383,-0.24638 -0.3102,-0.38231 -0.54,-0.27 -19.72,9.65 -38.7,27.46 -42.51,50.07 -2.81,16.7 2.83,38.42 17.75,48.23 10.72667,7.05333 23.16667,14.38 37.32,21.98 6.39,3.43 14.83,10.86 9.43,18.94 -0.16951,0.257 -0.46131,0.41412 -0.78,0.42 -19.48,0.74 -36.75,7.22333 -51.81,19.45 -1.05333,0.86 -1.49,0.61667 -1.31,-0.73 0.79,-5.86 -0.76,-11.54 -5.36,-15.52 -13.32,-11.52 -31.8,-1.04 -44.31,5.96 -0.62667,0.34667 -0.78667,0.19667 -0.48,-0.45 2.34,-4.91 4.92,-10.41 5.39,-15.63 1.3,-14.62 -8.97,-28.8 -24.62,-27.64 -8.12667,0.6 -14.37333,4.30667 -18.74,11.12 -0.22171,0.3401 -0.67379,0.44204 -1.02,0.23 l -4.86,-3 c -0.30815,-0.19207 -0.39058,-0.60419 -0.18,-0.9 3.92,-5.52 7.08,-11.91 9.16,-18.1 5.5,-16.38 0.23,-39.34 -19.14,-43.34 -14.14,-2.91 -29.14,4.14 -38.43,14.82 -8.8,10.14 -14.28,20.73 -20.72,34.36 -8.36,17.68 -15.42333,35.82 -21.19,54.42 -0.14515,0.4665 -0.70713,0.65042 -1.1,0.36 -27.96,-20.9 -63.87,-10.42 -78.91,20.08 -0.36,0.73333 -0.65333,0.70667 -0.88,-0.08 -2.9,-10.11 -6.69,-18.63 -14.08,-26.21 -13.26,-13.61 -32.57,-17.28 -50.76,-11.76 -0.26053,0.0769 -0.52842,-0.0876 -0.57,-0.35 -4.83,-27.84 -20.43,-62.28 -51.37,-68.81 -3.16,-0.66667 -8.71667,-0.98333 -16.67,-0.95 -28.52,0.11 -55.12,-4.45 -79.52,-20.78 -12.95,-8.67 -23.03,-20.39 -33.77,-31.07 -9.11,-9.05 -15.02,-5.74 -19.62,4.37 -5.76667,12.64667 -10.57667,26.09 -14.43,40.33 -1.69,6.21 -3.74,13.3 -2.33,19.32 2.87,12.29 21.39,22.98 33.19,27.11 9.57333,3.34667 19.34667,5.88667 29.32,7.62 15.25,2.64 14.88,17 9.59,27.96 -11.19333,23.16667 -22.35,46.34667 -33.47,69.54 -9.53,19.89 -17.35,41.36 -15.56,64.21 -0.32,0.19333 -0.56333,0.14 -0.73,-0.16 -0.13598,-0.24021 -0.40344,-0.35484 -0.63,-0.27 -2.22667,0.88 -4.25333,0.62 -6.08,-0.78 -0.86,-22.86 5.89,-43.24 15.61,-63.69 10.88667,-22.91333 21.86667,-45.78333 32.94,-68.61 2.46,-5.07 3.67,-8.79 4.29,-13.99 0.13333,-1.15333 -0.32667,-1.96333 -1.38,-2.43 -6.17,-2.75 -10.72,-3.64 -18.13,-3.91 -21.45,-0.79 -47.3,-5.87 -55.6,-28.7 -1.2,-4.28667 -1.63667,-7.52667 -1.31,-9.72 0.76,-5.13 0.07,-10.63 1.15,-15.44 3.3,-14.76667 7.77,-29.18667 13.41,-43.26 2.95,-6.75 6.51,-15.47 12.31,-19.45 7.97,-5.49 16.08,-1.39 22.14,4.71 5.10667,5.13333 10.18,10.30333 15.22,15.51 20.58,21.25 49.03,33.02 78.32,34.2 9.91,0.4 22.5,-0.46 31.29,1.07 32.31,5.63 50.6,37.75 57.11,67.17 0.0661,0.28064 0.31639,0.47669 0.6,0.47 3.15,-0.13 6.56,-0.74 9.34,-0.77 24.44,-0.25 40.09,11.19 52.16,31.63 0.12798,0.21549 0.42585,0.25024 0.6,0.07 3.45,-3.53 6.98,-7.53 10.78,-10.29 19.38667,-14.09333 40.31333,-15.69333 62.78,-4.8 0.32289,0.15721 0.71015,-0.008 0.82,-0.35 7.63333,-22.79333 17.15,-44.76333 28.55,-65.91 3.08,-5.71333 7.56,-11.74 13.44,-18.08 14.2,-15.32 39.26,-23.13 56.84,-9.33 14.55,11.41 16.84,31.95 10.22,48.67 -0.27333,0.68667 -0.0533,0.92 0.66,0.7 23.82,-7.43 43.23,10.31 40.93,33.95 -0.0373,0.39933 0.35162,0.70299 0.73,0.57 17.69,-6.38 33.4,-5.43 43.1,11.94 0.13335,0.24348 0.44073,0.32606 0.67,0.18 12.54,-7.7 26.18,-12.22 40.92,-13.56 0.7,-0.0667 0.82667,-0.36667 0.38,-0.9 -4.03,-4.82 -7.93,-6.34 -14.66,-8.57 -15.46,-5.14 -29.31333,-12.66 -41.56,-22.56 -20.55,-16.62 -18.89,-45.87 -6.02,-66.39 4.9,-7.82 10.28,-15.87 16.65,-22.16 10.43333,-10.30667 22.65333,-17.98 36.66,-23.02 0.21683,-0.0799 0.44424,0.0894 0.43,0.32 -2.56,31.76 25.74,46.63 52.06,52.58 13.92667,3.14667 27.96,5.68667 42.1,7.62 13.07,1.78 28.24,2.5 42.36,3.86 20.53,1.98 32.31,18.8 37.93,36.86 0.0968,0.31522 0.41062,0.50866 0.73,0.45 15.92667,-2.78667 27.64333,-10.91333 35.15,-24.38 2.99,-5.37 3.81,-14.73 12,-13.01 2.93333,0.61333 6.32667,1.76 10.18,3.44 13.98,6.08 23.35,12.7 26.82,28.77 1.46,6.73 2.28,18.23 6.14,26.9 3.02,6.79 10.74,13.03 18.37,9.6 2.26,-1.01 5.23,-4.14 6.53,-5.72 8.7,-10.59 19.79,-22.9 30.86,-32.35 9.32,-7.97 20.08,-7.94 26.55,3.93 4.24,7.78 4.07,16.58 6.63,24.99 2.54,8.34 13.4,16.28 21.28,18.24 15.54,3.85 31.9,4.96 32.94,25.58 0.047,0.9 0.2833,0.91667 0.71,0.05 8.42,-16.95 19.52,-28.08 38.31,-31.59 5.2533,-0.98 9.8833,-1.06333 13.89,-0.25 16.42,3.34 21.31,18.32 29.71,29.69 3,4.06 6.79,6.44 12.08,7.22 6.15,0.92 10.07,1.66 13.44,7.03 2.02,3.21333 2.8833,7.35667 2.59,12.43 -0.017,0.27503 0.1871,0.51846 0.47,0.56 2.3533,0.3 4.66,0.58333 6.92,0.85 9.96,1.17 18.9,7.97 17,19.03 -0.5733,3.34 -1.82,7.26667 -3.74,11.78 -5.2933,12.46 -10.67,24.88667 -16.13,37.28 z M 684.93,580.48 c -7.83,-10.71 -12.5,-25.05 -10.32,-38.51 0.22667,-1.42 -0.29667,-2.45667 -1.57,-3.11 -1.18,-0.60667 -2.65333,-0.57 -4.42,0.11 -0.27073,0.10988 -0.4429,0.38615 -0.43,0.69 0.15,3.26 -1,6.51 -1.34,8.79 -2.6,17.38667 3.34667,31.35 17.84,41.89 5.21,3.79 9.59,6.08 13.84,9.54 1.38667,1.12667 2.89667,1.40667 4.53,0.84 l 3.91,-1.36 c 0.30199,-0.10559 0.51799,-0.3563 0.56,-0.65 0.0667,-0.5 0.02,-0.98333 -0.14,-1.45 -0.096,-0.28196 -0.32971,-0.53363 -0.65,-0.7 -7.59,-3.96 -16.73,-9.14 -21.81,-16.08 z m -541.91,12.41 c 5.44667,5.34 11.82667,8.91 19.14,10.71 0.61333,0.15333 2.82333,0.70667 6.63,1.66 4.09,1.03 7.88,0.78 11.95,2.06 3.82,1.2 8.18,0.54 12.05,0.46 3.64,-0.08 6.26,1 9.25,2.71 1.29333,0.74 2.83667,0.39667 4.63,-1.03 2.74,-2.17 0.73,-3.33 -1.39,-3.9 -11.26,-3.04 -22.71,-4 -33.64,-8.14 -11.39,-4.32 -27.73,-13.41 -33.14,-24.98 -0.83,-1.78 -2.58,-3.39 -4.24,-1.41 -0.19394,0.23223 -0.30354,0.55041 -0.31,0.9 -0.11,8.7 3.03,15.03 9.07,20.96 z"
       id="path52"
       sodipodi:nodetypes="cccccccccccccccccccccccccccccccccccccccccccccccccccscccscccccccccccccccccccccccccccccccccccccccccccccccccccccccccccccccsccccccccccccccccccccccccccccsccccccccccccsccccccccccccccccccccccccccccccccccccccccccccccccccccccccccccccccccscccccccccccccccccccccccccccccccccccccccccccccccccccccccccccccccccccccccc"
       style="display:inline" />
    <path
       fill="#fdf50d"
       d="m 154.77,762.79 q 2.74,2.1 6.08,0.78 a 0.56,0.49 64 0 1 0.63,0.27 q 0.25,0.45 0.73,0.16 1.18,9.74 4.54,18.96 c -3,0.99 0.78,6.41 1.49,8.21 q 1.1,2.82 2.53,4.97 c 2.43,3.62 4.41,7.61 7.06,10.83 6.65,8.07 12.77,13.66 21.69,17.92 9.14,4.35 17.02,5.39 25.64,-0.26 a 0.68,0.64 -39.5 0 1 0.8,0.05 q 1.98,1.82 1.88,4.57 a 1.49,1.37 -25.2 0 1 -0.36,0.88 q -2.18,2.5 -5.94,4.6 c -11.73,6.54 -20.89,3.15 -31.71,-4.03 -6.87,-4.55 -11.77,-9.85 -16.33,-16.72 -3.5,-5.27 -6.53,-9.26 -11.02,-17 -1.05,-1.81 -1.11,-4.54 -3.94,-5.73 q -4.05,-13.99 -3.77,-28.46 z"
       id="path78" />
  </g>
</svg>
